# Blender v2.76 (sub 0) OBJ File: 'star.blend'
# www.blender.org
mtllib star.mtl
o Cube_Cube.001
v 0.130529 0.025165 1.000000
v 0.130529 2.025165 1.000000
v 0.130529 0.025165 -1.000000
v 0.130529 2.025165 -1.000000
v 0.145600 0.025165 1.000000
v 0.145600 2.025165 1.000000
v 0.145600 0.025165 -1.000000
v 0.145600 2.025165 -1.000000
vt 0.996081 1.003888
vt -0.003888 1.003894
vt 0.003919 0.003924
vt 1.003888 0.003919
vn -1.000000 0.000000 0.000000
vn 0.000000 0.000000 -1.000000
vn 1.000000 0.000000 0.000000
vn 0.000000 0.000000 1.000000
vn 0.000000 -1.000000 0.000000
vn 0.000000 1.000000 -0.000000
usemtl None
s off
f 2/1/1 4/2/1 3/3/1 1/4/1
f 4/1/2 8/2/2 7/3/2 3/4/2
f 8/1/3 6/2/3 5/3/3 7/4/3
f 6/1/4 2/2/4 1/3/4 5/4/4
f 1/1/5 3/2/5 7/3/5 5/4/5
f 6/1/6 8/2/6 4/3/6 2/4/6
