# Blender v2.76 (sub 0) OBJ File: '1-2-cl.blend'
# www.blender.org
mtllib 1-2_col.mtl
o Plane.002
v -79.920319 -26.140713 70.117867
v 63.693024 -26.140713 70.117867
v -79.920319 -26.140713 -73.495476
v 63.693024 -26.140713 -73.495476
vn 0.000000 1.000000 -0.000000
usemtl Material.001
s off
f 1//1 2//1 4//1 3//1
o Cube.012_Cube.017
v -1.706831 0.021688 -3.493463
v -1.706831 0.729723 -3.493463
v -1.706831 0.021688 -8.199409
v -1.706831 0.729723 -8.199409
v 1.634095 0.021688 -3.493463
v 1.634095 0.729723 -3.493463
v 1.634095 0.021688 -8.199409
v 1.634095 0.729723 -8.199409
vt -2.834066 -0.808551
vt 6.339184 -0.808551
vt 6.339184 1.808551
vt -2.834066 1.808551
vn -1.000000 0.000000 0.000000
vn -0.000000 0.000000 -1.000000
vn 1.000000 -0.000000 0.000000
vn 0.000000 0.000000 1.000000
vn 0.000000 -1.000000 0.000000
vn 0.000000 1.000000 0.000000
usemtl None
s off
f 6/1/2 8/2/2 7/3/2 5/4/2
f 8/1/3 12/2/3 11/3/3 7/4/3
f 12/1/4 10/2/4 9/3/4 11/4/4
f 10/1/5 6/2/5 5/3/5 9/4/5
f 5/1/6 7/2/6 11/3/6 9/4/6
f 10/1/7 12/2/7 8/3/7 6/4/7
o Cube_Cube.002
v -3.563609 0.041828 18.278374
v -3.563609 6.452205 18.278374
v -3.563609 0.041828 12.098182
v -3.563609 6.452205 12.098182
v -3.307098 0.041828 18.278374
v -3.307098 6.452205 18.278374
v -3.307098 0.041828 12.098182
v -3.307098 6.452205 12.098182
vt -0.919159 -0.919159
vt 1.919159 -0.919159
vt 1.919159 1.919159
vt -0.919159 1.919159
vn -1.000000 -0.000000 0.000000
vn 0.000000 0.000000 -1.000000
vn 1.000000 0.000000 0.000000
vn 0.000000 0.000000 1.000000
vn 0.000000 -1.000000 -0.000000
vn 0.000000 1.000000 0.000000
usemtl None_ULTRA_64_DEMO#1E82F06D#2#1#AE68E014_ciByRGBA.png
s off
f 14/5/8 16/6/8 15/7/8 13/8/8
f 16/5/9 20/6/9 19/7/9 15/8/9
f 20/5/10 18/6/10 17/7/10 19/8/10
f 18/5/11 14/6/11 13/7/11 17/8/11
f 13/5/12 15/6/12 19/7/12 17/8/12
f 18/5/13 20/6/13 16/7/13 14/8/13
o Plane
v -9.635310 0.041033 17.526688
v 12.734675 0.041033 17.183058
v -24.794777 0.041032 -25.954830
v -24.699818 0.041032 12.586630
v -9.609845 0.041032 18.506836
v 24.617567 0.041032 12.629080
v -9.759607 0.041040 12.742632
v 12.772029 0.041032 18.262255
v -3.975330 0.041027 12.812111
v -3.953658 0.041030 17.456345
v 12.575970 0.041039 12.597801
v 24.330494 0.041032 -25.119822
v 3.138613 0.041032 -31.397728
v 3.868033 0.041025 12.544904
v 3.917126 0.041028 17.203857
v -3.941802 0.041032 -31.379553
v 3.193811 0.041029 -25.122406
v -3.764999 0.041025 -26.081923
v -24.751925 0.041032 -8.561840
v -24.737389 0.041032 -2.661258
v 24.500338 0.041032 -2.785967
v 24.450104 0.041032 -9.391636
vt -13.421053 1.840721
vt 14.229612 2.307050
vt 14.162395 11.146011
vt 2.283976 11.147120
vt 2.252933 14.674083
vt -1.726135 14.663869
vt -1.626765 11.686429
vt -13.445136 11.615273
vt -4.911474 -13.371396
vt 7.666742 -13.233946
vt 7.645750 -12.627456
vt 2.690443 -12.639146
vt 2.662758 -10.020892
vt 7.556562 -10.050623
vt 14.323723 -10.068201
vt 14.257843 -1.405218
vt -13.412883 -1.475301
vt -13.391770 -10.044344
vt -4.995638 -10.132017
vt -1.745031 -10.171062
vt -1.732798 -12.781039
vt -4.925786 -12.820571
vn -0.000000 1.000000 -0.000000
usemtl None_ULTRA_64_DEMO#1E82F06D#2#1#AE68E014_ciByRGBA.png
s off
f 39/9/14 42/10/14 32/11/14 37/12/14 33/13/14 36/14/14 38/15/14 23/16/14
f 25/17/14 28/18/14 22/19/14 35/20/14 34/21/14 31/22/14 26/23/14 41/24/14 40/25/14 24/26/14 27/27/14 29/28/14 30/29/14 21/30/14
o Cube.001_Cube.003
v 2.938559 0.041828 18.278374
v 2.938559 6.452205 18.278374
v 2.938559 0.041828 12.098182
v 2.938559 6.452205 12.098182
v 3.195071 0.041828 18.278374
v 3.195071 6.452205 18.278374
v 3.195071 0.041828 12.098182
v 3.195071 6.452205 12.098182
vt -0.919159 -0.919159
vt 1.919159 -0.919159
vt 1.919159 1.919159
vt -0.919159 1.919159
vn -1.000000 0.000000 0.000000
vn 0.000000 0.000000 -1.000000
vn 1.000000 -0.000000 0.000000
vn 0.000000 0.000000 1.000000
vn 0.000000 -1.000000 -0.000000
vn 0.000000 1.000000 0.000000
usemtl None_ULTRA_64_DEMO#1E82F06D#2#1#AE68E014_ciByRGBA.png.001
s off
f 44/31/15 46/32/15 45/33/15 43/34/15
f 46/31/16 50/32/16 49/33/16 45/34/16
f 50/31/17 48/32/17 47/33/17 49/34/17
f 48/31/18 44/32/18 43/33/18 47/34/18
f 43/31/19 45/32/19 49/33/19 47/34/19
f 48/31/20 50/32/20 46/33/20 44/34/20
o Cube.002_Cube.004
v -24.486965 0.041828 12.152426
v -24.486965 6.452205 12.152426
v -24.486965 0.041828 -25.126722
v -24.486965 6.452205 -25.126722
v -24.230453 0.041828 12.152426
v -24.230453 6.452205 12.152426
v -24.230453 0.041828 -25.126722
v -24.230453 6.452205 -25.126722
vt -3.357345 -0.964667
vt 6.837660 -0.964667
vt 6.837660 1.964667
vt -3.357345 1.964667
vn -1.000000 -0.000000 0.000000
vn 0.000000 0.000000 -1.000000
vn 1.000000 -0.000000 0.000000
vn 0.000000 0.000000 1.000000
vn 0.000000 -1.000000 -0.000000
vn 0.000000 1.000000 0.000000
usemtl None_ULTRA_64_DEMO#1E82F06D#2#1#AE68E014_ciByRGBA.png.002
s off
f 52/35/21 54/36/21 53/37/21 51/38/21
f 54/35/22 58/36/22 57/37/22 53/38/22
f 58/35/23 56/36/23 55/37/23 57/38/23
f 56/35/24 52/36/24 51/37/24 55/38/24
f 51/35/25 53/36/25 57/37/25 55/38/25
f 56/35/26 58/36/26 54/37/26 52/38/26
o Cube.003_Cube.007
v 23.498493 0.041828 12.152426
v 23.498493 6.452205 12.152426
v 23.498493 0.041828 -25.126722
v 23.498493 6.452205 -25.126722
v 23.755005 0.041828 12.152426
v 23.755005 6.452205 12.152426
v 23.755005 0.041828 -25.126722
v 23.755005 6.452205 -25.126722
vt -3.357345 -0.964667
vt 6.837660 -0.964667
vt 6.837660 1.964667
vt -3.357345 1.964667
vn -1.000000 -0.000000 0.000000
vn 0.000000 0.000000 -1.000000
vn 1.000000 -0.000000 0.000000
vn 0.000000 0.000000 1.000000
vn 0.000000 -1.000000 -0.000000
vn 0.000000 1.000000 0.000000
usemtl None_ULTRA_64_DEMO#1E82F06D#2#1#AE68E014_ciByRGBA.png.005
s off
f 60/39/27 62/40/27 61/41/27 59/42/27
f 62/39/28 66/40/28 65/41/28 61/42/28
f 66/39/29 64/40/29 63/41/29 65/42/29
f 64/39/30 60/40/30 59/41/30 63/42/30
f 59/39/31 61/40/31 65/41/31 63/42/31
f 64/39/32 66/40/32 62/41/32 60/42/32
o Cube.004_Cube.008
v 3.184653 0.041828 12.152426
v 3.184653 6.452205 12.152426
v 3.184653 0.041828 11.614241
v 3.184653 6.452205 11.614241
v 23.700241 0.041828 12.152426
v 23.700241 6.452205 12.152426
v 23.700241 0.041828 11.614241
v 23.700241 6.452205 11.614241
vt -3.357345 -0.964667
vt 6.837660 -0.964667
vt 6.837660 1.964667
vt -3.357345 1.964667
vn -1.000000 -0.000000 0.000000
vn -0.000000 0.000000 -1.000000
vn 1.000000 -0.000000 0.000000
vn 0.000000 0.000000 1.000000
vn 0.000000 -1.000000 0.000000
vn 0.000000 1.000000 -0.000000
usemtl None_ULTRA_64_DEMO#1E82F06D#2#1#AE68E014_ciByRGBA.png.006
s off
f 68/43/33 70/44/33 69/45/33 67/46/33
f 70/43/34 74/44/34 73/45/34 69/46/34
f 74/43/35 72/44/35 71/45/35 73/46/35
f 72/43/36 68/44/36 67/45/36 71/46/36
f 67/43/37 69/44/37 73/45/37 71/46/37
f 72/43/38 74/44/38 70/45/38 68/46/38
o Cube.005_Cube.009
v -23.962570 0.041828 12.152426
v -23.962570 6.452205 12.152426
v -23.962570 0.041828 11.614241
v -23.962570 6.452205 11.614241
v -3.446981 0.041828 12.152426
v -3.446981 6.452205 12.152426
v -3.446981 0.041828 11.614241
v -3.446981 6.452205 11.614241
vt -3.357345 -0.964667
vt 6.837660 -0.964667
vt 6.837660 1.964667
vt -3.357345 1.964667
vn -1.000000 0.000000 0.000000
vn -0.000000 0.000000 -1.000000
vn 1.000000 -0.000000 0.000000
vn 0.000000 0.000000 1.000000
vn 0.000000 -1.000000 0.000000
vn 0.000000 1.000000 0.000000
usemtl None_ULTRA_64_DEMO#1E82F06D#2#1#AE68E014_ciByRGBA.png.007
s off
f 76/47/39 78/48/39 77/49/39 75/50/39
f 78/47/40 82/48/40 81/49/40 77/50/40
f 82/47/41 80/48/41 79/49/41 81/50/41
f 80/47/42 76/48/42 75/49/42 79/50/42
f 75/47/43 77/48/43 81/49/43 79/50/43
f 80/47/44 82/48/44 78/49/44 76/50/44
o Cube.006_Cube.010
v 3.184653 0.041828 -24.397251
v 3.184653 6.452205 -24.397251
v 3.184653 0.041828 -24.935436
v 3.184653 6.452205 -24.935436
v 23.700241 0.041828 -24.397251
v 23.700241 6.452205 -24.397251
v 23.700241 0.041828 -24.935436
v 23.700241 6.452205 -24.935436
vt -3.357345 -0.964667
vt 6.837660 -0.964667
vt 6.837660 1.964667
vt -3.357345 1.964667
vn -1.000000 -0.000000 0.000000
vn -0.000000 0.000000 -1.000000
vn 1.000000 -0.000000 0.000000
vn -0.000000 0.000000 1.000000
vn 0.000000 -1.000000 0.000000
vn 0.000000 1.000000 -0.000000
usemtl None_ULTRA_64_DEMO#1E82F06D#2#1#AE68E014_ciByRGBA.png.008
s off
f 84/51/45 86/52/45 85/53/45 83/54/45
f 86/51/46 90/52/46 89/53/46 85/54/46
f 90/51/47 88/52/47 87/53/47 89/54/47
f 88/51/48 84/52/48 83/53/48 87/54/48
f 83/51/49 85/52/49 89/53/49 87/54/49
f 88/51/50 90/52/50 86/53/50 84/54/50
o Cube.007_Cube.011
v -23.962570 0.041828 -25.118309
v -23.962570 6.452205 -25.118309
v -23.962570 0.041828 -25.656494
v -23.962570 6.452205 -25.656494
v -3.446981 0.041828 -25.118309
v -3.446981 6.452205 -25.118309
v -3.446981 0.041828 -25.656494
v -3.446981 6.452205 -25.656494
vt -3.357345 -0.964667
vt 6.837660 -0.964667
vt 6.837660 1.964667
vt -3.357345 1.964667
vn -1.000000 0.000000 0.000000
vn -0.000000 0.000000 -1.000000
vn 1.000000 -0.000000 0.000000
vn 0.000000 0.000000 1.000000
vn 0.000000 -1.000000 0.000000
vn 0.000000 1.000000 0.000000
usemtl None_ULTRA_64_DEMO#1E82F06D#2#1#AE68E014_ciByRGBA.png.009
s off
f 92/55/51 94/56/51 93/57/51 91/58/51
f 94/55/52 98/56/52 97/57/52 93/58/52
f 98/55/53 96/56/53 95/57/53 97/58/53
f 96/55/54 92/56/54 91/57/54 95/58/54
f 91/55/55 93/56/55 97/57/55 95/58/55
f 96/55/56 98/56/56 94/57/56 92/58/56
o Cube.008_Cube.012
v -3.563609 0.041828 -24.862881
v -3.563609 6.452205 -24.862881
v -3.563609 0.041828 -31.043074
v -3.563609 6.452205 -31.043074
v -3.307098 0.041828 -24.862881
v -3.307098 6.452205 -24.862881
v -3.307098 0.041828 -31.043074
v -3.307098 6.452205 -31.043074
vt -0.919159 -0.919159
vt 1.919159 -0.919159
vt 1.919159 1.919159
vt -0.919159 1.919159
vn -1.000000 -0.000000 0.000000
vn -0.000000 0.000000 -1.000000
vn 1.000000 -0.000000 0.000000
vn 0.000000 0.000000 1.000000
vn 0.000000 -1.000000 -0.000000
vn 0.000000 1.000000 0.000000
usemtl None_ULTRA_64_DEMO#1E82F06D#2#1#AE68E014_ciByRGBA.png.010
s off
f 100/59/57 102/60/57 101/61/57 99/62/57
f 102/59/58 106/60/58 105/61/58 101/62/58
f 106/59/59 104/60/59 103/61/59 105/62/59
f 104/59/60 100/60/60 99/61/60 103/62/60
f 99/59/61 101/60/61 105/61/61 103/62/61
f 104/59/62 106/60/62 102/61/62 100/62/62
o Cube.009_Cube.013
v 2.938559 0.041828 -24.862881
v 2.938559 6.452205 -24.862881
v 2.938559 0.041828 -31.043074
v 2.938559 6.452205 -31.043074
v 3.195071 0.041828 -24.862881
v 3.195071 6.452205 -24.862881
v 3.195071 0.041828 -31.043074
v 3.195071 6.452205 -31.043074
vt -0.919159 -0.919159
vt 1.919159 -0.919159
vt 1.919159 1.919159
vt -0.919159 1.919159
vn -1.000000 0.000000 0.000000
vn -0.000000 0.000000 -1.000000
vn 1.000000 0.000000 0.000000
vn 0.000000 0.000000 1.000000
vn 0.000000 -1.000000 -0.000000
vn 0.000000 1.000000 0.000000
usemtl None_ULTRA_64_DEMO#1E82F06D#2#1#AE68E014_ciByRGBA.png.011
s off
f 108/63/63 110/64/63 109/65/63 107/66/63
f 110/63/64 114/64/64 113/65/64 109/66/64
f 114/63/65 112/64/65 111/65/65 113/66/65
f 112/63/66 108/64/66 107/65/66 111/66/66
f 107/63/67 109/64/67 113/65/67 111/66/67
f 112/63/68 114/64/68 110/65/68 108/66/68
o Cube.010_Cube.014
v -8.887462 0.041828 18.244907
v -8.887462 6.452205 18.244907
v -8.887462 0.041828 17.706722
v -8.887462 6.452205 17.706722
v 11.628126 0.041828 18.244907
v 11.628126 6.452205 18.244907
v 11.628126 0.041828 17.706722
v 11.628126 6.452205 17.706722
vt -3.357345 -0.964667
vt 6.837660 -0.964667
vt 6.837660 1.964667
vt -3.357345 1.964667
vn -1.000000 -0.000000 0.000000
vn -0.000000 0.000000 -1.000000
vn 1.000000 0.000000 0.000000
vn 0.000000 0.000000 1.000000
vn 0.000000 -1.000000 0.000000
vn 0.000000 1.000000 -0.000000
usemtl None_ULTRA_64_DEMO#1E82F06D#2#1#AE68E014_ciByRGBA.png.012
s off
f 116/67/69 118/68/69 117/69/69 115/70/69
f 118/67/70 122/68/70 121/69/70 117/70/70
f 122/67/71 120/68/71 119/69/71 121/70/71
f 120/67/72 116/68/72 115/69/72 119/70/72
f 115/67/73 117/68/73 121/69/73 119/70/73
f 120/67/74 122/68/74 118/69/74 116/70/74
o Cube.011_Cube.015
v -8.887462 0.041828 -30.482300
v -8.887462 6.452205 -30.482300
v -8.887462 0.041828 -31.020485
v -8.887462 6.452205 -31.020485
v 11.628126 0.041828 -30.482300
v 11.628126 6.452205 -30.482300
v 11.628126 0.041828 -31.020485
v 11.628126 6.452205 -31.020485
vt -3.357345 -0.964667
vt 6.837660 -0.964667
vt 6.837660 1.964667
vt -3.357345 1.964667
vn -1.000000 -0.000000 0.000000
vn 0.000000 0.000000 -1.000000
vn 1.000000 0.000000 0.000000
vn 0.000000 0.000000 1.000000
vn 0.000000 -1.000000 0.000000
vn 0.000000 1.000000 -0.000000
usemtl None_ULTRA_64_DEMO#1E82F06D#2#1#AE68E014_ciByRGBA.png.013
s off
f 124/71/75 126/72/75 125/73/75 123/74/75
f 126/71/76 130/72/76 129/73/76 125/74/76
f 130/71/77 128/72/77 127/73/77 129/74/77
f 128/71/78 124/72/78 123/73/78 127/74/78
f 123/71/79 125/72/79 129/73/79 127/74/79
f 128/71/80 130/72/80 126/73/80 124/74/80
o Plane.001
v -9.343996 6.480829 17.526688
v 13.025990 6.480829 17.183058
v -24.503462 6.480827 -25.954830
v -24.408504 6.480827 12.586630
v -9.318530 6.480827 18.506836
v 24.908880 6.480827 12.629080
v -9.468293 6.480835 12.742632
v 13.063343 6.480827 18.262255
v -3.684016 6.480823 12.812111
v -3.662343 6.480825 17.456345
v 12.867284 6.480834 12.597801
v 24.621809 6.480827 -25.119822
v 3.429928 6.480827 -31.397728
v 4.159348 6.480820 12.544904
v 4.208440 6.480824 17.203857
v -3.650488 6.480827 -31.379553
v 3.485125 6.480824 -25.122406
v -3.473684 6.480820 -26.081923
vt -4.911474 -13.371396
vt 7.666742 -13.233946
vt 7.645750 -12.627456
vt 2.690443 -12.639146
vt 2.662758 -10.020892
vt 7.556562 -10.050623
vt 14.323723 -10.068201
vt 14.162395 11.146011
vt 2.283976 11.147120
vt 2.252933 14.674083
vt -1.726135 14.663869
vt -1.626765 11.686429
vt -13.445136 11.615273
vt -13.391770 -10.044344
vt -4.995638 -10.132017
vt -1.745031 -10.171062
vt -1.732798 -12.781039
vt -4.925786 -12.820571
vn -0.000000 1.000000 -0.000000
usemtl None_ULTRA_64_DEMO#1E82F06D#2#1#AE68E014_ciByRGBA.png.014
s off
f 135/75/81 138/76/81 132/77/81 145/78/81 144/79/81 141/80/81 136/81/81 142/82/81 147/83/81 143/84/81 146/85/81 148/86/81 133/87/81 134/88/81 137/89/81 139/90/81 140/91/81 131/92/81
o Cube.013_Cube.006
v -1.706831 -0.701560 -2.653684
v -1.706831 0.006475 -2.653684
v -1.706831 0.021688 -3.566535
v -1.706831 0.729723 -3.566535
v 1.634095 -0.701560 -2.653684
v 1.634095 0.006475 -2.653684
v 1.634095 0.021688 -3.566535
v 1.634095 0.729723 -3.566535
vt -0.445311 -0.769972
vt 1.023657 -0.769972
vt 1.023657 1.769972
vt -0.445311 1.769972
vn -1.000000 -0.000000 0.000000
vn 0.000000 0.000000 -1.000000
vn 1.000000 0.000000 0.000000
vn -0.000000 0.000000 1.000000
vn 0.000000 -0.783800 -0.621000
vn -0.000000 0.783800 0.621000
usemtl None_5.png.004
s off
f 150/93/82 152/94/82 151/95/82 149/96/82
f 152/93/83 156/94/83 155/95/83 151/96/83
f 156/93/84 154/94/84 153/95/84 155/96/84
f 154/93/85 150/94/85 149/95/85 153/96/85
f 149/93/86 151/94/86 155/95/86 153/96/86
f 154/93/87 156/94/87 152/95/87 150/96/87
o Cube.014_Cube.016
v -1.706831 0.019943 -8.181839
v -1.706831 0.727978 -8.181839
v -1.706831 -0.559734 -9.094690
v -1.706831 0.005500 -9.094690
v 1.634095 0.019943 -8.181839
v 1.634095 0.727978 -8.181839
v 1.634095 -0.559734 -9.094690
v 1.634095 0.005500 -9.094690
vt -0.445311 -0.769972
vt 1.023657 -0.769972
vt 1.023657 1.769972
vt -0.445311 1.769972
vn -1.000000 -0.000000 0.000000
vn 0.000000 0.000000 -1.000000
vn 1.000000 -0.000000 0.000000
vn 0.000000 0.000000 1.000000
vn -0.000000 -0.844200 0.536100
vn -0.000000 0.784100 -0.620600
usemtl None_5.png.005
s off
f 158/97/88 160/98/88 159/99/88 157/100/88
f 160/97/89 164/98/89 163/99/89 159/100/89
f 164/97/90 162/98/90 161/99/90 163/100/90
f 162/97/91 158/98/91 157/99/91 161/100/91
f 157/97/92 159/98/92 163/99/92 161/100/92
f 162/97/93 164/98/93 160/99/93 158/100/93
