# Blender 4.0.0
# www.blender.org
mtllib 2-1.2.mtl
o Plane
v -4.884794 0.000000 4.884794
v 4.884794 0.000000 4.884794
v -4.884794 0.000000 -4.884794
v 4.884794 0.000000 -4.884794
vn -0.0000 1.0000 -0.0000
vt -3.056116 4.056116
vt -3.056116 -3.056116
vt 4.056116 -3.056116
vt 4.056116 4.056116
s 0
usemtl Material.001
f 1/1/1 2/2/1 4/3/1 3/4/1
o Plane.001
v -4.836466 7.050609 -4.932641
v 4.932649 7.051338 -4.836459
v -4.932649 7.067716 4.836459
v 4.836466 7.068445 4.932641
vn 0.0001 -1.0000 0.0018
vt -3.056116 4.056116
vt -3.056116 -3.056116
vt 4.056116 -3.056116
vt 4.056116 4.056116
s 0
usemtl Material.002
f 5/5/2 6/6/2 8/7/2 7/8/2
o Cube
v -3.060617 -0.027625 4.752696
v -3.060617 1.972375 4.752696
v -3.060617 -0.027625 -4.876737
v -3.060617 1.972375 -4.876737
v 3.065477 -0.027625 4.752696
v 3.065477 1.972375 4.752696
v 3.065477 -0.027625 -4.876737
v 3.065477 1.972375 -4.876737
vn -1.0000 -0.0000 -0.0000
vn -0.0000 -0.0000 -1.0000
vn 1.0000 -0.0000 -0.0000
vn -0.0000 -0.0000 1.0000
vn -0.0000 -1.0000 -0.0000
vn -0.0000 1.0000 -0.0000
vt -2.070503 1.000000
vt -2.070503 0.000000
vt 3.070503 0.000000
vt 3.070503 1.000000
vt -2.716046 -2.716046
vt 3.716046 -2.716046
vt 3.716046 3.716046
vt -2.716046 3.716046
vt -1.913206 1.000000
vt -1.913206 0.000000
vt 2.913206 0.000000
vt 2.913206 1.000000
s 0
usemtl Material.003
f 9/9/3 10/10/3 12/11/3 11/12/3
f 11/13/4 12/14/4 16/15/4 15/16/4
f 15/17/5 16/18/5 14/19/5 13/20/5
f 13/13/6 14/14/6 10/15/6 9/16/6
f 11/13/7 15/14/7 13/15/7 9/16/7
f 16/13/8 12/14/8 10/15/8 14/16/8
o Cube.001
v -5.323302 -0.007712 4.852125
v -5.323302 7.042864 4.852125
v -5.323302 -0.007712 -4.877954
v -5.323302 7.042864 -4.877954
v -4.865466 -0.007712 4.852125
v -4.865466 7.042864 4.852125
v -4.865466 -0.007712 -4.877954
v -4.865466 7.042864 -4.877954
vn -1.0000 -0.0000 -0.0000
vn -0.0000 -0.0000 -1.0000
vn 1.0000 -0.0000 -0.0000
vn -0.0000 -0.0000 1.0000
vn -0.0000 -1.0000 -0.0000
vn -0.0000 1.0000 -0.0000
vt 4.215193 -3.215193
vt 4.215193 4.215193
vt -3.215193 4.215193
vt -3.215193 -3.215193
s 0
usemtl Material.004
f 17/21/9 18/22/9 20/23/9 19/24/9
f 19/21/10 20/22/10 24/23/10 23/24/10
f 23/21/11 24/22/11 22/23/11 21/24/11
f 21/21/12 22/22/12 18/23/12 17/24/12
f 19/21/13 23/22/13 21/23/13 17/24/13
f 24/21/14 20/22/14 18/23/14 22/24/14
o Cube.002
v 4.872555 -0.007712 4.852125
v 4.872555 7.042864 4.852125
v 4.872555 -0.007712 -4.877954
v 4.872555 7.042864 -4.877954
v 5.330391 -0.007712 4.852125
v 5.330391 7.042864 4.852125
v 5.330391 -0.007712 -4.877954
v 5.330391 7.042864 -4.877954
vn -1.0000 -0.0000 -0.0000
vn -0.0000 -0.0000 -1.0000
vn 1.0000 -0.0000 -0.0000
vn -0.0000 -0.0000 1.0000
vn -0.0000 -1.0000 -0.0000
vn -0.0000 1.0000 -0.0000
vt 4.215193 -3.215193
vt 4.215193 4.215193
vt -3.215193 4.215193
vt -3.215193 -3.215193
s 0
usemtl Material.005
f 25/25/15 26/26/15 28/27/15 27/28/15
f 27/25/16 28/26/16 32/27/16 31/28/16
f 31/25/17 32/26/17 30/27/17 29/28/17
f 29/25/18 30/26/18 26/27/18 25/28/18
f 27/25/19 31/26/19 29/27/19 25/28/19
f 32/25/20 28/26/20 26/27/20 30/28/20
o RCP_dokan
v 5.458553 0.867288 3.000717
v 5.458553 1.617044 2.567331
v 4.301414 0.867288 3.000717
v 5.458553 1.617044 2.567331
v 5.458553 1.617044 1.700561
v 4.301414 1.617044 2.567331
v 5.458553 1.617044 1.700561
v 5.458553 0.867288 1.267175
v 4.301414 1.617044 1.700560
v 5.458553 0.867288 1.267175
v 5.458553 0.117531 1.700561
v 4.301414 0.867288 1.267175
v 5.458553 0.117531 1.700561
v 5.458553 0.117531 2.567331
v 4.301414 0.117531 1.700560
v 5.458553 0.117531 2.567331
v 5.458553 0.867288 3.000717
v 4.301414 0.117531 2.567331
v 4.301414 0.867288 3.161069
v 4.301414 1.755728 2.649675
v 3.725011 0.867288 3.161069
v 4.301414 1.755728 2.649675
v 4.301414 1.755728 1.618217
v 3.725011 1.755728 2.649675
v 4.301414 1.755728 1.618217
v 4.301414 0.867288 1.106823
v 3.725011 1.755728 1.618217
v 4.301414 0.867288 1.106823
v 4.301414 -0.021152 1.618217
v 3.725011 0.867288 1.106823
v 3.725011 -0.021152 1.618217
v 4.301414 -0.021152 1.618217
v 3.725011 -0.021152 2.649675
v 3.725011 -0.021152 2.649675
v 4.301414 -0.021152 2.649675
v 3.725011 0.867288 3.161069
v 5.458553 0.117531 2.567331
v 5.458553 0.867288 2.775356
v 5.458553 0.867288 3.000717
v 5.458553 0.867288 3.000717
v 5.458553 0.867288 2.775356
v 5.458553 1.617044 2.567331
v 5.458553 1.617044 2.567331
v 5.458553 1.422021 1.813241
v 5.458553 1.617044 1.700561
v 5.458553 1.617044 1.700561
v 5.458553 1.422021 1.813241
v 5.458553 0.867288 1.267175
v 5.458553 0.867288 1.267175
v 5.458553 0.867288 1.492536
v 5.458553 0.117531 1.700561
v 5.458553 0.117531 1.700561
v 5.458553 0.312555 2.454651
v 5.458553 0.117531 2.567331
v 4.301414 -0.021152 2.649675
v 4.301414 -0.021152 1.618217
v 4.301414 0.117531 1.700560
v 4.301414 -0.021152 1.618217
v 4.301414 0.867288 1.106823
v 4.301414 0.117531 1.700560
v 4.301414 0.867288 1.106823
v 4.301414 1.755728 1.618217
v 4.301414 0.867288 1.267175
v 4.301414 1.755728 1.618217
v 4.301414 1.755728 2.649675
v 4.301414 1.617044 1.700560
v 4.301414 1.755728 2.649675
v 4.301414 0.867288 3.161069
v 4.301414 0.867288 3.000717
v 4.301414 0.867288 3.161069
v 4.301414 -0.021152 2.649675
v 4.301414 0.867288 3.000717
v 3.725011 0.867288 2.775356
v 3.725011 0.867288 3.161069
v 3.725011 1.755728 2.649675
v 3.725011 1.422021 2.454651
v 3.725011 1.755728 2.649675
v 3.725011 1.755728 1.618217
v 3.725011 0.867288 1.492535
v 3.725011 1.755728 1.618217
v 3.725011 0.867288 1.106823
v 3.725011 0.867288 1.492535
v 3.725011 0.867288 1.106823
v 3.725011 -0.021152 1.618217
v 3.725011 0.312555 2.454651
v 3.725011 -0.021152 1.618217
v 3.725011 -0.021152 2.649675
v 3.725011 -0.021152 2.649675
v 3.725011 0.867288 3.161069
v 3.725011 0.867288 2.775356
v 3.725011 0.867288 2.775356
v 3.725011 1.422021 2.454651
v 5.458553 0.867288 2.775356
v 3.725011 1.422021 2.454651
v 5.458553 1.422021 1.813241
v 5.458553 1.422021 2.454651
v 3.725011 1.422021 1.813241
v 3.725011 0.867288 1.492535
v 5.458553 1.422021 1.813241
v 3.725011 0.867288 1.492535
v 3.725011 0.312555 1.813241
v 5.458553 0.867288 1.492536
v 3.725011 0.312555 1.813241
v 3.725011 0.312555 2.454651
v 5.458553 0.312555 2.454651
v 3.725011 0.312555 2.454651
v 3.725011 0.867288 2.775356
v 5.458553 0.312555 2.454651
v 3.725011 0.867288 2.775356
v 5.458553 0.867288 2.775356
v 5.458553 0.312555 2.454651
v 5.458553 0.312555 2.454651
v 5.458553 0.312555 1.813241
v 3.725011 0.312555 1.813241
v 3.725011 0.312555 1.813241
v 5.458553 0.312555 1.813241
v 5.458553 0.867288 1.492536
v 3.725011 0.867288 1.492535
v 5.458553 0.867288 1.492536
v 5.458553 1.422021 1.813241
v 3.725011 1.422021 2.454651
v 3.725011 1.422021 1.813241
v 5.458553 1.422021 1.813241
v 3.725011 1.422021 2.454651
v 5.458553 1.422021 2.454651
v 5.458553 0.867288 2.775356
v 3.725011 0.867288 2.775356
v 3.725011 0.312555 2.454651
v 3.725011 -0.021152 2.649675
v 3.725011 0.312555 2.454651
v 3.725011 0.312555 1.813241
v 3.725011 -0.021152 1.618217
v 3.725011 -0.021152 1.618217
v 3.725011 0.312555 1.813241
v 3.725011 0.867288 1.492535
v 3.725011 0.867288 1.492535
v 3.725011 1.422021 1.813241
v 3.725011 1.755728 1.618217
v 3.725011 1.755728 1.618217
v 3.725011 1.422021 1.813241
v 3.725011 1.422021 2.454651
v 3.725011 1.755728 2.649675
v 3.725011 1.422021 2.454651
v 3.725011 0.867288 2.775356
v 4.301414 -0.021152 2.649675
v 4.301414 0.117531 2.567331
v 4.301414 0.867288 3.000717
v 4.301414 0.867288 3.000717
v 4.301414 1.617044 2.567331
v 4.301414 1.755728 2.649675
v 4.301414 1.755728 2.649675
v 4.301414 1.617044 2.567331
v 4.301414 1.617044 1.700560
v 4.301414 1.755728 1.618217
v 4.301414 1.617044 1.700560
v 4.301414 0.867288 1.267175
v 4.301414 0.867288 1.106823
v 4.301414 0.867288 1.267175
v 4.301414 0.117531 1.700560
v 4.301414 0.117531 1.700560
v 4.301414 0.117531 2.567331
v 4.301414 -0.021152 2.649675
v 5.458553 0.117531 1.700561
v 5.458553 0.312555 1.813241
v 5.458553 0.312555 2.454651
v 5.458553 0.867288 1.492536
v 5.458553 0.312555 1.813241
v 5.458553 0.117531 1.700561
v 5.458553 1.422021 1.813241
v 5.458553 0.867288 1.492536
v 5.458553 0.867288 1.267175
v 5.458553 1.617044 2.567331
v 5.458553 1.422021 2.454651
v 5.458553 1.422021 1.813241
v 5.458553 0.867288 2.775356
v 5.458553 1.422021 2.454651
v 5.458553 1.617044 2.567331
v 5.458553 0.117531 2.567331
v 5.458553 0.312555 2.454651
v 5.458553 0.867288 2.775356
v 4.301414 -0.021152 2.649675
v 4.301414 0.867288 3.161069
v 3.725011 0.867288 3.161069
v 4.301414 -0.021152 1.618217
v 4.301414 -0.021152 2.649675
v 3.725011 -0.021152 2.649675
v 4.301414 -0.021152 1.618217
v 3.725011 -0.021152 1.618217
v 3.725011 0.867288 1.106823
v 4.301414 0.867288 1.106823
v 3.725011 0.867288 1.106823
v 3.725011 1.755728 1.618217
v 4.301414 1.755728 1.618217
v 3.725011 1.755728 1.618217
v 3.725011 1.755728 2.649675
v 4.301414 1.755728 2.649675
v 3.725011 1.755728 2.649675
v 3.725011 0.867288 3.161069
v 5.458553 0.867288 3.000717
v 4.301414 0.867288 3.000717
v 4.301414 0.117531 2.567331
v 5.458553 0.117531 2.567331
v 4.301414 0.117531 2.567331
v 4.301414 0.117531 1.700560
v 5.458553 0.117531 1.700561
v 4.301414 0.117531 1.700560
v 4.301414 0.867288 1.267175
v 5.458553 0.867288 1.267175
v 4.301414 0.867288 1.267175
v 4.301414 1.617044 1.700560
v 5.458553 1.617044 1.700561
v 4.301414 1.617044 1.700560
v 4.301414 1.617044 2.567331
v 5.458553 1.617044 2.567331
v 4.301414 1.617044 2.567331
v 4.301414 0.867288 3.000717
vn -0.0000 0.5004 0.8658
vn -0.0000 1.0000 -0.0000
vn -0.0000 0.5004 -0.8658
vn -0.0000 -0.5004 -0.8658
vn -0.0000 -1.0000 -0.0000
vn -0.0000 -0.5004 0.8658
vn -0.0000 0.4989 0.8667
vn -0.0000 0.4989 -0.8667
vn -0.0000 -0.4989 -0.8667
vn -0.0000 -0.4989 0.8667
vn 1.0000 -0.0000 -0.0000
vn -1.0000 -0.0000 -0.0000
vn -0.0000 -0.5005 -0.8657
vn -0.0000 -0.5005 0.8657
vn -0.0000 0.5005 0.8657
vn -0.0000 0.5005 -0.8657
vt 0.000000 1.000000
s 0
usemtl Material.006
f 33/29/21 34/29/21 35/29/21
f 36/29/22 37/29/22 38/29/22
f 39/29/23 40/29/23 41/29/23
f 42/29/24 43/29/24 44/29/24
f 45/29/25 46/29/25 47/29/25
f 48/29/26 49/29/26 50/29/26
f 51/29/27 52/29/27 53/29/27
f 54/29/22 55/29/22 56/29/22
f 57/29/28 58/29/28 59/29/28
f 60/29/29 61/29/29 62/29/29
f 63/29/25 64/29/25 65/29/25
f 66/29/30 67/29/30 68/29/30
f 69/29/31 70/29/31 71/29/31
f 72/29/31 73/29/31 74/29/31
f 75/29/31 76/29/31 77/29/31
f 78/29/31 79/29/31 80/29/31
f 81/29/31 82/29/31 83/29/31
f 84/29/31 85/29/31 86/29/31
f 87/29/31 88/29/31 89/29/31
f 90/29/31 91/29/31 92/29/31
f 93/29/31 94/29/31 95/29/31
f 96/29/31 97/29/31 98/29/31
f 99/29/31 100/29/31 101/29/31
f 102/29/31 103/29/31 104/29/31
f 105/29/32 106/29/32 107/29/32
f 108/29/32 109/29/32 110/29/32
f 111/29/32 112/29/32 113/29/32
f 114/29/32 115/29/32 116/29/32
f 117/29/32 118/29/32 119/29/32
f 120/29/32 121/29/32 122/29/32
f 123/29/33 124/29/33 125/29/33
f 126/29/25 127/29/25 128/29/25
f 129/29/34 130/29/34 131/29/34
f 132/29/35 133/29/35 134/29/35
f 135/29/22 136/29/22 137/29/22
f 138/29/36 139/29/36 140/29/36
f 141/29/36 142/29/36 143/29/36
f 144/29/22 145/29/22 146/29/22
f 147/29/35 148/29/35 149/29/35
f 150/29/34 151/29/34 152/29/34
f 153/29/25 154/29/25 155/29/25
f 156/29/33 157/29/33 158/29/33
f 159/29/32 160/29/32 161/29/32
f 162/29/32 163/29/32 164/29/32
f 165/29/32 166/29/32 167/29/32
f 168/29/32 169/29/32 170/29/32
f 171/29/32 172/29/32 173/29/32
f 174/29/32 175/29/32 176/29/32
f 177/29/31 178/29/31 179/29/31
f 180/29/31 181/29/31 182/29/31
f 183/29/31 184/29/31 185/29/31
f 186/29/31 187/29/31 188/29/31
f 189/29/31 190/29/31 191/29/31
f 192/29/31 193/29/31 194/29/31
f 195/29/31 196/29/31 197/29/31
f 198/29/31 199/29/31 200/29/31
f 201/29/31 202/29/31 203/29/31
f 204/29/31 205/29/31 206/29/31
f 207/29/31 208/29/31 209/29/31
f 210/29/31 211/29/31 212/29/31
f 213/29/30 214/29/30 215/29/30
f 216/29/25 217/29/25 218/29/25
f 219/29/29 220/29/29 221/29/29
f 222/29/28 223/29/28 224/29/28
f 225/29/22 226/29/22 227/29/22
f 228/29/27 229/29/27 230/29/27
f 231/29/26 232/29/26 233/29/26
f 234/29/25 235/29/25 236/29/25
f 237/29/24 238/29/24 239/29/24
f 240/29/23 241/29/23 242/29/23
f 243/29/22 244/29/22 245/29/22
f 246/29/21 247/29/21 248/29/21
