# Blender 3.5.1
# www.blender.org
mtllib 1-2 new.mtl
o Cube.001_Cube.001
v -2.452472 4.698315 14.930367
v -2.452472 4.701966 14.930367
v -2.452472 4.698315 14.930359
v -2.452472 4.701966 14.930359
v 0.637785 3.977083 14.932465
v 0.637785 5.423198 14.932465
v 0.637785 3.977083 14.928262
v 0.637785 5.423198 14.928262
v 0.601675 -0.121128 14.997375
v 0.601675 5.496822 14.997375
v 0.601675 -0.121128 14.818159
v 0.601675 5.496822 14.818158
v 0.780892 -0.121128 14.997375
v 0.780892 5.496822 14.997375
v 0.780892 -0.121128 14.818159
v 0.780892 5.496822 14.818158
vn -1.0000 -0.0000 -0.0000
vn -0.0007 -0.0000 -1.0000
vn 1.0000 -0.0000 -0.0000
vn -0.0007 -0.0000 1.0000
vn -0.2272 -0.9738 -0.0000
vn -0.2274 0.9738 -0.0003
vn -0.0000 -0.0000 -1.0000
vn -0.0000 -0.0000 1.0000
vn -0.0000 -1.0000 -0.0000
vn -0.0000 1.0000 -0.0000
vt 0.999651 -0.001395
vt -0.000348 0.001396
vt 1.000348 0.998604
vt 1.000348 0.998604
vt 0.000349 1.001395
vt 0.999651 -0.001395
vt -0.000348 0.001396
vt 0.999651 -0.001395
vt 0.000349 1.001395
vt 0.000349 1.001395
vt 1.000348 0.998604
vt -0.000348 0.001396
vt -0.000348 0.001396
vt 0.999651 -0.001395
vt 0.000349 1.001395
vt 1.000348 0.998604
vt 0.999651 -0.001395
vt -0.000348 0.001396
vt 1.000348 0.998604
vt 0.000349 1.001395
vt 0.000000 2.771764
vt 1.000000 2.771764
vt 0.000000 0.000000
vt 0.000000 0.000000
vt 1.000000 0.000000
vt 0.000000 2.771764
vt 1.000000 2.771764
vt 0.000000 2.771764
vt 1.000000 0.000000
vt 1.000000 0.000000
vt 0.000000 0.000000
vt 1.000000 2.771764
vt 1.000000 2.771764
vt 0.000000 2.771764
vt 1.000000 0.000000
vt 0.000000 0.000000
vt 0.000000 2.771764
vt 1.000000 2.771764
vt 0.000000 0.000000
vt 1.000000 0.000000
s 0
usemtl None.001
f 2/4/1 4/10/1 3/7/1 1/1/1
f 4/11/2 8/20/2 7/18/2 3/8/2
f 8/19/3 6/15/3 5/13/3 7/17/3
f 6/16/4 2/5/4 1/2/4 5/14/4
f 1/3/5 3/9/5 7/18/5 5/14/5
f 6/16/6 8/20/6 4/12/6 2/6/6
usemtl None_pole.png
f 10/24/1 12/30/1 11/27/1 9/21/1
f 12/31/7 16/40/7 15/38/7 11/28/7
f 16/39/3 14/35/3 13/33/3 15/37/3
f 14/36/8 10/25/8 9/22/8 13/34/8
f 9/23/9 11/29/9 15/38/9 13/34/9
f 14/36/10 16/40/10 12/32/10 10/26/10
o Cube.001_Cube.003
v 2.938559 0.041830 18.278374
v 2.938559 6.452209 18.278374
v 2.938559 0.041830 12.098182
v 2.938559 6.452207 12.098180
v 3.195071 0.041830 18.278374
v 3.195071 6.452209 18.278374
v 3.195071 0.041830 12.098182
v 3.195071 6.452207 12.098180
vn -1.0000 -0.0000 -0.0000
vn -0.0000 -0.0000 -1.0000
vn 1.0000 -0.0000 -0.0000
vn -0.0000 -0.0000 1.0000
vn -0.0000 -1.0000 -0.0000
vn -0.0000 1.0000 -0.0000
vt -0.919159 1.919159
vt 1.919159 1.919159
vt -0.919159 -0.919159
vt -0.919159 -0.919159
vt 1.919159 -0.919159
vt -0.919159 1.919159
vt 1.919159 1.919159
vt -0.919159 1.919159
vt 1.919159 -0.919159
vt 1.919159 -0.919159
vt -0.919159 -0.919159
vt 1.919159 1.919159
vt 1.919159 1.919159
vt -0.919159 1.919159
vt 1.919159 -0.919159
vt -0.919159 -0.919159
vt -0.919159 1.919159
vt 1.919159 1.919159
vt -0.919159 -0.919159
vt 1.919159 -0.919159
s 0
usemtl None_ULTRA_64_DEMO#1E82F06D#2#1#AE68E014_ciByRGBA.png.001
f 18/44/11 20/50/11 19/47/11 17/41/11
f 20/51/12 24/60/12 23/58/12 19/48/12
f 24/59/13 22/55/13 21/53/13 23/57/13
f 22/56/14 18/45/14 17/42/14 21/54/14
f 17/43/15 19/49/15 23/58/15 21/54/15
f 22/56/16 24/60/16 20/52/16 18/46/16
o Cube.002_Cube.004
v -24.486965 0.041830 12.152426
v -24.486965 6.452207 12.152424
v -24.486965 0.041824 -25.126722
v -24.486965 6.452201 -25.126722
v -24.230453 0.041830 12.152426
v -24.230453 6.452207 12.152424
v -24.230453 0.041824 -25.126722
v -24.230453 6.452201 -25.126722
vn -1.0000 -0.0000 -0.0000
vn -0.0000 -0.0000 -1.0000
vn 1.0000 -0.0000 -0.0000
vn -0.0000 -0.0000 1.0000
vn -0.0000 -1.0000 -0.0000
vn -0.0000 1.0000 -0.0000
vt -3.357345 1.964667
vt 6.837660 1.964667
vt -3.357345 -0.964667
vt -3.357345 -0.964667
vt 6.837660 -0.964667
vt -3.357345 1.964667
vt 6.837660 1.964667
vt -3.357345 1.964667
vt 6.837660 -0.964667
vt 6.837660 -0.964667
vt -3.357345 -0.964667
vt 6.837660 1.964667
vt 6.837660 1.964667
vt -3.357345 1.964667
vt 6.837660 -0.964667
vt -3.357345 -0.964667
vt -3.357345 1.964667
vt 6.837660 1.964667
vt -3.357345 -0.964667
vt 6.837660 -0.964667
s 0
usemtl None_ULTRA_64_DEMO#1E82F06D#2#1#AE68E014_ciByRGBA.png.002
f 26/64/17 28/70/17 27/67/17 25/61/17
f 28/71/18 32/80/18 31/78/18 27/68/18
f 32/79/19 30/75/19 29/73/19 31/77/19
f 30/76/20 26/65/20 25/62/20 29/74/20
f 25/63/21 27/69/21 31/78/21 29/74/21
f 30/76/22 32/80/22 28/72/22 26/66/22
o Cube.003_Cube.007
v 23.498493 0.041830 12.152426
v 23.498493 6.452207 12.152424
v 23.498493 0.041824 -25.126722
v 23.498493 6.452201 -25.126722
v 23.755005 0.041830 12.152426
v 23.755005 6.452207 12.152424
v 23.755005 0.041824 -25.126722
v 23.755005 6.452201 -25.126722
vn -1.0000 -0.0000 -0.0000
vn -0.0000 -0.0000 -1.0000
vn 1.0000 -0.0000 -0.0000
vn -0.0000 -0.0000 1.0000
vn -0.0000 -1.0000 -0.0000
vn -0.0000 1.0000 -0.0000
vt -3.357345 1.964667
vt 6.837660 1.964667
vt -3.357345 -0.964667
vt -3.357345 -0.964667
vt 6.837660 -0.964667
vt -3.357345 1.964667
vt 6.837660 1.964667
vt -3.357345 1.964667
vt 6.837660 -0.964667
vt 6.837660 -0.964667
vt -3.357345 -0.964667
vt 6.837660 1.964667
vt 6.837660 1.964667
vt -3.357345 1.964667
vt 6.837660 -0.964667
vt -3.357345 -0.964667
vt -3.357345 1.964667
vt 6.837660 1.964667
vt -3.357345 -0.964667
vt 6.837660 -0.964667
s 0
usemtl None_ULTRA_64_DEMO#1E82F06D#2#1#AE68E014_ciByRGBA.png.005
f 34/84/23 36/90/23 35/87/23 33/81/23
f 36/91/24 40/100/24 39/98/24 35/88/24
f 40/99/25 38/95/25 37/93/25 39/97/25
f 38/96/26 34/85/26 33/82/26 37/94/26
f 33/83/27 35/89/27 39/98/27 37/94/27
f 38/96/28 40/100/28 36/92/28 34/86/28
o Cube.004_Cube.008
v 3.007447 0.041830 12.152426
v 3.007447 6.452207 12.152424
v 3.007447 0.041830 11.614241
v 3.007447 6.452207 11.614239
v 23.700241 0.041830 12.152426
v 23.700241 6.452207 12.152424
v 23.700241 0.041830 11.614241
v 23.700241 6.452207 11.614239
vn -1.0000 -0.0000 -0.0000
vn -0.0000 -0.0000 -1.0000
vn 1.0000 -0.0000 -0.0000
vn -0.0000 -0.0000 1.0000
vn -0.0000 -1.0000 -0.0000
vn -0.0000 1.0000 -0.0000
vt -3.357345 1.964667
vt 6.837660 1.964667
vt -3.357345 -0.964667
vt -3.357345 -0.964667
vt 6.837660 -0.964667
vt -3.357345 1.964667
vt 6.837660 1.964667
vt -3.357345 1.964667
vt 6.837660 -0.964667
vt 6.837660 -0.964667
vt -3.357345 -0.964667
vt 6.837660 1.964667
vt 6.837660 1.964667
vt -3.357345 1.964667
vt 6.837660 -0.964667
vt -3.357345 -0.964667
vt -3.357345 1.964667
vt 6.837660 1.964667
vt -3.357345 -0.964667
vt 6.837660 -0.964667
s 0
usemtl None_ULTRA_64_DEMO#1E82F06D#2#1#AE68E014_ciByRGBA.png.006
f 42/104/29 44/110/29 43/107/29 41/101/29
f 44/111/30 48/120/30 47/118/30 43/108/30
f 48/119/31 46/115/31 45/113/31 47/117/31
f 46/116/32 42/105/32 41/102/32 45/114/32
f 41/103/33 43/109/33 47/118/33 45/114/33
f 46/116/34 48/120/34 44/112/34 42/106/34
o Cube.005_Cube.009
v -23.962570 0.041830 12.152426
v -23.962570 6.452207 12.152424
v -23.962570 0.041830 11.614241
v -23.962570 6.452207 11.614239
v -3.340452 0.041830 12.152426
v -3.340452 6.452207 12.152424
v -3.340452 0.041830 11.614241
v -3.340452 6.452207 11.614239
vn -1.0000 -0.0000 -0.0000
vn -0.0000 -0.0000 -1.0000
vn 1.0000 -0.0000 -0.0000
vn -0.0000 -0.0000 1.0000
vn -0.0000 -1.0000 -0.0000
vn -0.0000 1.0000 -0.0000
vt -3.357345 1.964667
vt 6.837660 1.964667
vt -3.357345 -0.964667
vt -3.357345 -0.964667
vt 6.837660 -0.964667
vt -3.357345 1.964667
vt 6.837660 1.964667
vt -3.357345 1.964667
vt 6.837660 -0.964667
vt 6.837660 -0.964667
vt -3.357345 -0.964667
vt 6.837660 1.964667
vt 6.837660 1.964667
vt -3.357345 1.964667
vt 6.837660 -0.964667
vt -3.357345 -0.964667
vt -3.357345 1.964667
vt 6.837660 1.964667
vt -3.357345 -0.964667
vt 6.837660 -0.964667
s 0
usemtl None_ULTRA_64_DEMO#1E82F06D#2#1#AE68E014_ciByRGBA.png.007
f 50/124/35 52/130/35 51/127/35 49/121/35
f 52/131/36 56/140/36 55/138/36 51/128/36
f 56/139/37 54/135/37 53/133/37 55/137/37
f 54/136/38 50/125/38 49/122/38 53/134/38
f 49/123/39 51/129/39 55/138/39 53/134/39
f 54/136/40 56/140/40 52/132/40 50/126/40
o Cube.006_Cube.010
v 2.958324 0.041824 -24.397251
v 2.958324 6.452201 -24.397251
v 2.958324 0.041824 -24.935436
v 2.958324 6.452201 -24.935436
v 23.700241 0.041824 -24.397251
v 23.700241 6.452201 -24.397251
v 23.700241 0.041824 -24.935436
v 23.700241 6.452201 -24.935436
vn -1.0000 -0.0000 -0.0000
vn -0.0000 -0.0000 -1.0000
vn 1.0000 -0.0000 -0.0000
vn -0.0000 -0.0000 1.0000
vn -0.0000 -1.0000 -0.0000
vn -0.0000 1.0000 -0.0000
vt -3.357345 1.964667
vt 6.837660 1.964667
vt -3.357345 -0.964667
vt -3.357345 -0.964667
vt 6.837660 -0.964667
vt -3.357345 1.964667
vt 6.837660 1.964667
vt -3.357345 1.964667
vt 6.837660 -0.964667
vt 6.837660 -0.964667
vt -3.357345 -0.964667
vt 6.837660 1.964667
vt 6.837660 1.964667
vt -3.357345 1.964667
vt 6.837660 -0.964667
vt -3.357345 -0.964667
vt -3.357345 1.964667
vt 6.837660 1.964667
vt -3.357345 -0.964667
vt 6.837660 -0.964667
s 0
usemtl None_ULTRA_64_DEMO#1E82F06D#2#1#AE68E014_ciByRGBA.png.008
f 58/144/41 60/150/41 59/147/41 57/141/41
f 60/151/42 64/160/42 63/158/42 59/148/42
f 64/159/43 62/155/43 61/153/43 63/157/43
f 62/156/44 58/145/44 57/142/44 61/154/44
f 57/143/45 59/149/45 63/158/45 61/154/45
f 62/156/46 64/160/46 60/152/46 58/146/46
o Cube.007_Cube.011
v -24.450277 0.041824 -24.523109
v -24.450277 6.452201 -24.523109
v -24.450277 0.041824 -25.061295
v -24.450277 6.452201 -25.061295
v -3.332939 0.041824 -24.523109
v -3.332939 6.452201 -24.523109
v -3.332939 0.041824 -25.061295
v -3.332939 6.452201 -25.061295
vn -1.0000 -0.0000 -0.0000
vn -0.0000 -0.0000 -1.0000
vn 1.0000 -0.0000 -0.0000
vn -0.0000 -0.0000 1.0000
vn -0.0000 -1.0000 -0.0000
vn -0.0000 1.0000 -0.0000
vt -3.357345 1.964667
vt 6.837660 1.964667
vt -3.357345 -0.964667
vt -3.357345 -0.964667
vt 6.837660 -0.964667
vt -3.357345 1.964667
vt 6.837660 1.964667
vt -3.357345 1.964667
vt 6.837660 -0.964667
vt 6.837660 -0.964667
vt -3.357345 -0.964667
vt 6.837660 1.964667
vt 6.837660 1.964667
vt -3.357345 1.964667
vt 6.837660 -0.964667
vt -3.357345 -0.964667
vt -3.357345 1.964667
vt 6.837660 1.964667
vt -3.357345 -0.964667
vt 6.837660 -0.964667
s 0
usemtl None_ULTRA_64_DEMO#1E82F06D#2#1#AE68E014_ciByRGBA.png.009
f 66/164/47 68/170/47 67/167/47 65/161/47
f 68/171/48 72/180/48 71/178/48 67/168/48
f 72/179/49 70/175/49 69/173/49 71/177/49
f 70/176/50 66/165/50 65/162/50 69/174/50
f 65/163/51 67/169/51 71/178/51 69/174/51
f 70/176/52 72/180/52 68/172/52 66/166/52
o Cube.008_Cube.012
v -3.563609 0.041824 -24.862881
v -3.563609 6.452201 -24.862881
v -3.563609 0.041824 -31.043074
v -3.563609 6.452200 -31.043074
v -3.307098 0.041824 -24.862881
v -3.307098 6.452201 -24.862881
v -3.307098 0.041824 -31.043074
v -3.307098 6.452200 -31.043074
vn -1.0000 -0.0000 -0.0000
vn -0.0000 -0.0000 -1.0000
vn 1.0000 -0.0000 -0.0000
vn -0.0000 -0.0000 1.0000
vn -0.0000 -1.0000 -0.0000
vn -0.0000 1.0000 -0.0000
vt -0.919159 1.919159
vt 1.919159 1.919159
vt -0.919159 -0.919159
vt -0.919159 -0.919159
vt 1.919159 -0.919159
vt -0.919159 1.919159
vt 1.919159 1.919159
vt -0.919159 1.919159
vt 1.919159 -0.919159
vt 1.919159 -0.919159
vt -0.919159 -0.919159
vt 1.919159 1.919159
vt 1.919159 1.919159
vt -0.919159 1.919159
vt 1.919159 -0.919159
vt -0.919159 -0.919159
vt -0.919159 1.919159
vt 1.919159 1.919159
vt -0.919159 -0.919159
vt 1.919159 -0.919159
s 0
usemtl None_ULTRA_64_DEMO#1E82F06D#2#1#AE68E014_ciByRGBA.png.010
f 74/184/53 76/190/53 75/187/53 73/181/53
f 76/191/54 80/200/54 79/198/54 75/188/54
f 80/199/55 78/195/55 77/193/55 79/197/55
f 78/196/56 74/185/56 73/182/56 77/194/56
f 73/183/57 75/189/57 79/198/57 77/194/57
f 78/196/58 80/200/58 76/192/58 74/186/58
o Cube.009_Cube.013
v 2.938559 0.041824 -24.862881
v 2.938559 6.452201 -24.862881
v 2.938559 0.041824 -31.043074
v 2.938559 6.452200 -31.043074
v 3.195071 0.041824 -24.862881
v 3.195071 6.452201 -24.862881
v 3.195071 0.041824 -31.043074
v 3.195071 6.452200 -31.043074
vn -1.0000 -0.0000 -0.0000
vn -0.0000 -0.0000 -1.0000
vn 1.0000 -0.0000 -0.0000
vn -0.0000 -0.0000 1.0000
vn -0.0000 -1.0000 -0.0000
vn -0.0000 1.0000 -0.0000
vt -0.919159 1.919159
vt 1.919159 1.919159
vt -0.919159 -0.919159
vt -0.919159 -0.919159
vt 1.919159 -0.919159
vt -0.919159 1.919159
vt 1.919159 1.919159
vt -0.919159 1.919159
vt 1.919159 -0.919159
vt 1.919159 -0.919159
vt -0.919159 -0.919159
vt 1.919159 1.919159
vt 1.919159 1.919159
vt -0.919159 1.919159
vt 1.919159 -0.919159
vt -0.919159 -0.919159
vt -0.919159 1.919159
vt 1.919159 1.919159
vt -0.919159 -0.919159
vt 1.919159 -0.919159
s 0
usemtl None_ULTRA_64_DEMO#1E82F06D#2#1#AE68E014_ciByRGBA.png.011
f 82/204/59 84/210/59 83/207/59 81/201/59
f 84/211/60 88/220/60 87/218/60 83/208/60
f 88/219/61 86/215/61 85/213/61 87/217/61
f 86/216/62 82/205/62 81/202/62 85/214/62
f 81/203/63 83/209/63 87/218/63 85/214/63
f 86/216/64 88/220/64 84/212/64 82/206/64
o Cube.010_Cube.014
v -8.887462 0.041830 18.244907
v -8.887462 6.452209 18.244907
v -8.887462 0.041830 17.706722
v -8.887462 6.452209 17.706722
v 11.628126 0.041830 18.244907
v 11.628126 6.452209 18.244907
v 11.628126 0.041830 17.706722
v 11.628126 6.452209 17.706722
vn -1.0000 -0.0000 -0.0000
vn -0.0000 -0.0000 -1.0000
vn 1.0000 -0.0000 -0.0000
vn -0.0000 -0.0000 1.0000
vn -0.0000 -1.0000 -0.0000
vn -0.0000 1.0000 -0.0000
vt -3.357345 1.964667
vt 6.837660 1.964667
vt -3.357345 -0.964667
vt -3.357345 -0.964667
vt 6.837660 -0.964667
vt -3.357345 1.964667
vt 6.837660 1.964667
vt -3.357345 1.964667
vt 6.837660 -0.964667
vt 6.837660 -0.964667
vt -3.357345 -0.964667
vt 6.837660 1.964667
vt 6.837660 1.964667
vt -3.357345 1.964667
vt 6.837660 -0.964667
vt -3.357345 -0.964667
vt -3.357345 1.964667
vt 6.837660 1.964667
vt -3.357345 -0.964667
vt 6.837660 -0.964667
s 0
usemtl None_ULTRA_64_DEMO#1E82F06D#2#1#AE68E014_ciByRGBA.png.012
f 90/224/65 92/230/65 91/227/65 89/221/65
f 92/231/66 96/240/66 95/238/66 91/228/66
f 96/239/67 94/235/67 93/233/67 95/237/67
f 94/236/68 90/225/68 89/222/68 93/234/68
f 89/223/69 91/229/69 95/238/69 93/234/69
f 94/236/70 96/240/70 92/232/70 90/226/70
o Cube.011_Cube.015
v -8.887462 0.041824 -30.482300
v -8.887462 6.452200 -30.482300
v -8.887462 0.041824 -31.020485
v -8.887462 6.452200 -31.020485
v 11.628126 0.041824 -30.482300
v 11.628126 6.452200 -30.482300
v 11.628126 0.041824 -31.020485
v 11.628126 6.452200 -31.020485
vn -1.0000 -0.0000 -0.0000
vn -0.0000 -0.0000 -1.0000
vn 1.0000 -0.0000 -0.0000
vn -0.0000 -0.0000 1.0000
vn -0.0000 -1.0000 -0.0000
vn -0.0000 1.0000 -0.0000
vt -3.357345 1.964667
vt 6.837660 1.964667
vt -3.357345 -0.964667
vt -3.357345 -0.964667
vt 6.837660 -0.964667
vt -3.357345 1.964667
vt 6.837660 1.964667
vt -3.357345 1.964667
vt 6.837660 -0.964667
vt 6.837660 -0.964667
vt -3.357345 -0.964667
vt 6.837660 1.964667
vt 6.837660 1.964667
vt -3.357345 1.964667
vt 6.837660 -0.964667
vt -3.357345 -0.964667
vt -3.357345 1.964667
vt 6.837660 1.964667
vt -3.357345 -0.964667
vt 6.837660 -0.964667
s 0
usemtl None_ULTRA_64_DEMO#1E82F06D#2#1#AE68E014_ciByRGBA.png.013
f 98/244/71 100/250/71 99/247/71 97/241/71
f 100/251/72 104/260/72 103/258/72 99/248/72
f 104/259/73 102/255/73 101/253/73 103/257/73
f 102/256/74 98/245/74 97/242/74 101/254/74
f 97/243/75 99/249/75 103/258/75 101/254/75
f 102/256/76 104/260/76 100/252/76 98/246/76
o Cube.012_Cube.017
v -1.706831 0.021688 -3.493463
v -1.706831 0.729723 -3.493463
v -1.706831 0.021686 -8.199409
v -1.706831 0.729721 -8.199409
v 1.634095 0.021688 -3.493463
v 1.634095 0.729723 -3.493463
v 1.634095 0.021686 -8.199409
v 1.634095 0.729721 -8.199409
vn -1.0000 -0.0000 -0.0000
vn -0.0000 -0.0000 -1.0000
vn 1.0000 -0.0000 -0.0000
vn -0.0000 -0.0000 1.0000
vn -0.0000 -1.0000 -0.0000
vn -0.0000 1.0000 -0.0000
vt -2.834066 1.808551
vt 6.339184 1.808551
vt -2.834066 -0.808551
vt -2.834066 -0.808551
vt 6.339184 -0.808551
vt -2.834066 1.808551
vt 6.339184 1.808551
vt -2.834066 1.808551
vt 6.339184 -0.808551
vt 6.339184 -0.808551
vt -2.834066 -0.808551
vt 6.339184 1.808551
vt 6.339184 1.808551
vt -2.834066 1.808551
vt 6.339184 -0.808551
vt -2.834066 -0.808551
vt -2.834066 1.808551
vt 6.339184 1.808551
vt -2.834066 -0.808551
vt 6.339184 -0.808551
s 0
usemtl None
f 106/264/77 108/270/77 107/267/77 105/261/77
f 108/271/78 112/280/78 111/278/78 107/268/78
f 112/279/79 110/275/79 109/273/79 111/277/79
f 110/276/80 106/265/80 105/262/80 109/274/80
f 105/263/81 107/269/81 111/278/81 109/274/81
f 110/276/82 112/280/82 108/272/82 106/266/82
o Cube.013_Cube.006
v -1.706831 -0.701560 -2.653684
v -1.706831 0.006475 -2.653684
v -1.706831 0.021688 -3.566535
v -1.706831 0.729723 -3.566535
v 1.634095 -0.701560 -2.653684
v 1.634095 0.006475 -2.653684
v 1.634095 0.021688 -3.566535
v 1.634095 0.729723 -3.566535
vn -1.0000 -0.0000 -0.0000
vn -0.0000 -0.0000 -1.0000
vn 1.0000 -0.0000 -0.0000
vn -0.0000 -0.0000 1.0000
vn -0.0000 -0.7838 -0.6210
vn -0.0000 0.7838 0.6210
vt -0.445311 1.769972
vt 1.023657 1.769972
vt -0.445311 -0.769972
vt -0.445311 -0.769972
vt 1.023657 -0.769972
vt -0.445311 1.769972
vt 1.023657 1.769972
vt -0.445311 1.769972
vt 1.023657 -0.769972
vt 1.023657 -0.769972
vt -0.445311 -0.769972
vt 1.023657 1.769972
vt 1.023657 1.769972
vt -0.445311 1.769972
vt 1.023657 -0.769972
vt -0.445311 -0.769972
vt -0.445311 1.769972
vt 1.023657 1.769972
vt -0.445311 -0.769972
vt 1.023657 -0.769972
s 0
usemtl None_5.png.004
f 114/284/83 116/290/83 115/287/83 113/281/83
f 116/291/84 120/300/84 119/298/84 115/288/84
f 120/299/85 118/295/85 117/293/85 119/297/85
f 118/296/86 114/285/86 113/282/86 117/294/86
f 113/283/87 115/289/87 119/298/87 117/294/87
f 118/296/88 120/300/88 116/292/88 114/286/88
o Cube.014_Cube.016
v -1.706831 0.019941 -8.181839
v -1.706831 0.727976 -8.181839
v -1.706831 -0.559736 -9.094690
v -1.706831 0.005498 -9.094690
v 1.634095 0.019941 -8.181839
v 1.634095 0.727976 -8.181839
v 1.634095 -0.559736 -9.094690
v 1.634095 0.005498 -9.094690
vn -1.0000 -0.0000 -0.0000
vn -0.0000 -0.0000 -1.0000
vn 1.0000 -0.0000 -0.0000
vn -0.0000 -0.0000 1.0000
vn -0.0000 -0.8442 0.5361
vn -0.0000 0.7841 -0.6206
vt -0.445311 1.769972
vt 1.023657 1.769972
vt -0.445311 -0.769972
vt -0.445311 -0.769972
vt 1.023657 -0.769972
vt -0.445311 1.769972
vt 1.023657 1.769972
vt -0.445311 1.769972
vt 1.023657 -0.769972
vt 1.023657 -0.769972
vt -0.445311 -0.769972
vt 1.023657 1.769972
vt 1.023657 1.769972
vt -0.445311 1.769972
vt 1.023657 -0.769972
vt -0.445311 -0.769972
vt -0.445311 1.769972
vt 1.023657 1.769972
vt -0.445311 -0.769972
vt 1.023657 -0.769972
s 0
usemtl None_5.png.005
f 122/304/89 124/310/89 123/307/89 121/301/89
f 124/311/90 128/320/90 127/318/90 123/308/90
f 128/319/91 126/315/91 125/313/91 127/317/91
f 126/316/92 122/305/92 121/302/92 125/314/92
f 121/303/93 123/309/93 127/318/93 125/314/93
f 126/316/94 128/320/94 124/312/94 122/306/94
o Cube_Cube.002
v -3.563609 0.041830 18.278374
v -3.563609 6.452209 18.278374
v -3.563609 0.041830 12.098182
v -3.563609 6.452207 12.098180
v -3.307098 0.041830 18.278374
v -3.307098 6.452209 18.278374
v -3.307098 0.041830 12.098182
v -3.307098 6.452207 12.098180
vn -1.0000 -0.0000 -0.0000
vn -0.0000 -0.0000 -1.0000
vn 1.0000 -0.0000 -0.0000
vn -0.0000 -0.0000 1.0000
vn -0.0000 -1.0000 -0.0000
vn -0.0000 1.0000 -0.0000
vt -0.919159 1.919159
vt 1.919159 1.919159
vt -0.919159 -0.919159
vt -0.919159 -0.919159
vt 1.919159 -0.919159
vt -0.919159 1.919159
vt 1.919159 1.919159
vt -0.919159 1.919159
vt 1.919159 -0.919159
vt 1.919159 -0.919159
vt -0.919159 -0.919159
vt 1.919159 1.919159
vt 1.919159 1.919159
vt -0.919159 1.919159
vt 1.919159 -0.919159
vt -0.919159 -0.919159
vt -0.919159 1.919159
vt 1.919159 1.919159
vt -0.919159 -0.919159
vt 1.919159 -0.919159
s 0
usemtl None_ULTRA_64_DEMO#1E82F06D#2#1#AE68E014_ciByRGBA.png
f 130/324/95 132/330/95 131/327/95 129/321/95
f 132/331/96 136/340/96 135/338/96 131/328/96
f 136/339/97 134/335/97 133/333/97 135/337/97
f 134/336/98 130/325/98 129/322/98 133/334/98
f 129/323/99 131/329/99 135/338/99 133/334/99
f 134/336/100 136/340/100 132/332/100 130/326/100
o Plane
v -9.635310 0.041035 17.526688
v 12.734675 0.041035 17.183058
v -24.794777 0.041028 -25.954830
v -24.699818 0.041034 12.586630
v -9.609845 0.041034 18.506836
v 24.617567 0.041034 12.629080
v -9.759607 0.041042 12.742632
v 12.772029 0.041034 18.262255
v -3.975330 0.041029 12.812111
v -3.953658 0.041032 17.456345
v 12.575970 0.041041 12.597801
v 24.330494 0.041028 -25.119822
v 3.138613 0.041028 -31.397728
v 3.868033 0.041027 12.544904
v 3.917126 0.041030 17.203857
v -3.941802 0.041028 -31.379553
v 3.193811 0.041025 -25.122406
v -3.764999 0.041021 -26.081923
v -24.751925 0.041030 -8.561840
v -24.737389 0.041032 -2.661258
v 24.500338 0.041032 -2.785967
v 24.450104 0.041030 -9.391636
vn -0.0000 1.0000 -0.0000
vt -4.925786 -12.820571
vt 7.645750 -12.627456
vt -13.445136 11.615273
vt -13.391770 -10.044344
vt -4.911474 -13.371396
vt 14.323723 -10.068201
vt -4.995638 -10.132017
vt 7.666742 -13.233946
vt -1.745031 -10.171062
vt -1.732798 -12.781039
vt 7.556562 -10.050623
vt 14.162395 11.146011
vt 2.252933 14.674083
vt 2.662758 -10.020892
vt 2.690443 -12.639146
vt -1.726135 14.663869
vt 2.283976 11.147120
vt -1.626765 11.686429
vt -13.421053 1.840721
vt -13.412883 -1.475301
vt 14.257843 -1.405218
vt 14.229612 2.307050
s 0
usemtl None_ULTRA_64_DEMO#1E82F06D#2#1#AE68E014_ciByRGBA.png
f 155/359/101 158/362/101 148/352/101 153/357/101 149/353/101 152/356/101 154/358/101 139/343/101
f 141/345/101 144/348/101 138/342/101 151/355/101 150/354/101 147/351/101 142/346/101 157/361/101 156/360/101 140/344/101 143/347/101 145/349/101 146/350/101 137/341/101
o Plane.001
v -9.343996 6.480832 17.526688
v 13.025990 6.480832 17.183058
v -24.503462 6.480823 -25.954830
v -24.408504 6.480829 12.586628
v -9.318530 6.480829 18.506836
v 24.908880 6.480829 12.629078
v -9.468293 6.480837 12.742630
v 13.063343 6.480829 18.262255
v -3.684016 6.480825 12.812109
v -3.662343 6.480827 17.456345
v 12.867284 6.480836 12.597799
v 24.621809 6.480823 -25.119822
v 3.429928 6.480822 -31.397728
v 4.159348 6.480822 12.544902
v 4.208440 6.480826 17.203857
v -3.650488 6.480822 -31.379553
v 3.485125 6.480820 -25.122406
v -3.473684 6.480816 -26.081923
vn -0.0000 1.0000 -0.0000
vt -4.925786 -12.820571
vt 7.645750 -12.627456
vt -13.445136 11.615273
vt -13.391770 -10.044344
vt -4.911474 -13.371396
vt 14.323723 -10.068201
vt -4.995638 -10.132017
vt 7.666742 -13.233946
vt -1.745031 -10.171062
vt -1.732798 -12.781039
vt 7.556562 -10.050623
vt 14.162395 11.146011
vt 2.252933 14.674083
vt 2.662758 -10.020892
vt 2.690443 -12.639146
vt -1.726135 14.663869
vt 2.283976 11.147120
vt -1.626765 11.686429
s 0
usemtl None_ULTRA_64_DEMO#1E82F06D#2#1#AE68E014_ciByRGBA.png.014
f 163/367/102 166/370/102 160/364/102 173/377/102 172/376/102 169/373/102 164/368/102 170/374/102 175/379/102 171/375/102 174/378/102 176/380/102 161/365/102 162/366/102 165/369/102 167/371/102 168/372/102 159/363/102
