# Blender 3.5.1
# www.blender.org
mtllib 1-2_vis.mtl
o Cube.001_Cube.003
v 2.938559 0.041829 18.278374
v 2.938559 6.452207 18.278374
v 2.938559 0.041829 12.098182
v 2.938559 6.452206 12.098181
v 3.195071 0.041829 18.278374
v 3.195071 6.452207 18.278374
v 3.195071 0.041829 12.098182
v 3.195071 6.452206 12.098181
vn -1.0000 -0.0000 -0.0000
vn -0.0000 -0.0000 -1.0000
vn 1.0000 -0.0000 -0.0000
vn -0.0000 -0.0000 1.0000
vn -0.0000 -1.0000 -0.0000
vn -0.0000 1.0000 -0.0000
vt -0.919159 1.919159
vt 1.919159 1.919159
vt -0.919159 -0.919159
vt -0.919159 -0.919159
vt 1.919159 -0.919159
vt -0.919159 1.919159
vt 1.919159 1.919159
vt -0.919159 1.919159
vt 1.919159 -0.919159
vt 1.919159 -0.919159
vt -0.919159 -0.919159
vt 1.919159 1.919159
vt 1.919159 1.919159
vt -0.919159 1.919159
vt 1.919159 -0.919159
vt -0.919159 -0.919159
vt -0.919159 1.919159
vt 1.919159 1.919159
vt -0.919159 -0.919159
vt 1.919159 -0.919159
s 0
usemtl None_ULTRA_64_DEMO#1E82F06D#2#1#AE68E014_ciByRGBA.png.001
f 2/4/1 4/10/1 3/7/1 1/1/1
f 4/11/2 8/20/2 7/18/2 3/8/2
f 8/19/3 6/15/3 5/13/3 7/17/3
f 6/16/4 2/5/4 1/2/4 5/14/4
f 1/3/5 3/9/5 7/18/5 5/14/5
f 6/16/6 8/20/6 4/12/6 2/6/6
o Cube.002_Cube.004
v -24.486965 0.041829 12.152426
v -24.486965 6.452206 12.152425
v -24.486965 0.041826 -25.126722
v -24.486965 6.452203 -25.126722
v -24.230453 0.041829 12.152426
v -24.230453 6.452206 12.152425
v -24.230453 0.041826 -25.126722
v -24.230453 6.452203 -25.126722
vn -1.0000 -0.0000 -0.0000
vn -0.0000 -0.0000 -1.0000
vn 1.0000 -0.0000 -0.0000
vn -0.0000 -0.0000 1.0000
vn -0.0000 -1.0000 -0.0000
vn -0.0000 1.0000 -0.0000
vt -3.357345 1.964667
vt 6.837660 1.964667
vt -3.357345 -0.964667
vt -3.357345 -0.964667
vt 6.837660 -0.964667
vt -3.357345 1.964667
vt 6.837660 1.964667
vt -3.357345 1.964667
vt 6.837660 -0.964667
vt 6.837660 -0.964667
vt -3.357345 -0.964667
vt 6.837660 1.964667
vt 6.837660 1.964667
vt -3.357345 1.964667
vt 6.837660 -0.964667
vt -3.357345 -0.964667
vt -3.357345 1.964667
vt 6.837660 1.964667
vt -3.357345 -0.964667
vt 6.837660 -0.964667
s 0
usemtl None_ULTRA_64_DEMO#1E82F06D#2#1#AE68E014_ciByRGBA.png.002
f 10/24/7 12/30/7 11/27/7 9/21/7
f 12/31/8 16/40/8 15/38/8 11/28/8
f 16/39/9 14/35/9 13/33/9 15/37/9
f 14/36/10 10/25/10 9/22/10 13/34/10
f 9/23/11 11/29/11 15/38/11 13/34/11
f 14/36/12 16/40/12 12/32/12 10/26/12
o Cube.003_Cube.007
v 23.498493 0.041829 12.152426
v 23.498493 6.452206 12.152425
v 23.498493 0.041826 -25.126722
v 23.498493 6.452203 -25.126722
v 23.755005 0.041829 12.152426
v 23.755005 6.452206 12.152425
v 23.755005 0.041826 -25.126722
v 23.755005 6.452203 -25.126722
vn -1.0000 -0.0000 -0.0000
vn -0.0000 -0.0000 -1.0000
vn 1.0000 -0.0000 -0.0000
vn -0.0000 -0.0000 1.0000
vn -0.0000 -1.0000 -0.0000
vn -0.0000 1.0000 -0.0000
vt -3.357345 1.964667
vt 6.837660 1.964667
vt -3.357345 -0.964667
vt -3.357345 -0.964667
vt 6.837660 -0.964667
vt -3.357345 1.964667
vt 6.837660 1.964667
vt -3.357345 1.964667
vt 6.837660 -0.964667
vt 6.837660 -0.964667
vt -3.357345 -0.964667
vt 6.837660 1.964667
vt 6.837660 1.964667
vt -3.357345 1.964667
vt 6.837660 -0.964667
vt -3.357345 -0.964667
vt -3.357345 1.964667
vt 6.837660 1.964667
vt -3.357345 -0.964667
vt 6.837660 -0.964667
s 0
usemtl None_ULTRA_64_DEMO#1E82F06D#2#1#AE68E014_ciByRGBA.png.005
f 18/44/13 20/50/13 19/47/13 17/41/13
f 20/51/14 24/60/14 23/58/14 19/48/14
f 24/59/15 22/55/15 21/53/15 23/57/15
f 22/56/16 18/45/16 17/42/16 21/54/16
f 17/43/17 19/49/17 23/58/17 21/54/17
f 22/56/18 24/60/18 20/52/18 18/46/18
o Cube.004_Cube.008
v 3.184653 0.041829 12.152426
v 3.184653 6.452206 12.152425
v 3.184653 0.041829 11.614241
v 3.184653 6.452206 11.614240
v 23.700241 0.041829 12.152426
v 23.700241 6.452206 12.152425
v 23.700241 0.041829 11.614241
v 23.700241 6.452206 11.614240
vn -1.0000 -0.0000 -0.0000
vn -0.0000 -0.0000 -1.0000
vn 1.0000 -0.0000 -0.0000
vn -0.0000 -0.0000 1.0000
vn -0.0000 -1.0000 -0.0000
vn -0.0000 1.0000 -0.0000
vt -3.357345 1.964667
vt 6.837660 1.964667
vt -3.357345 -0.964667
vt -3.357345 -0.964667
vt 6.837660 -0.964667
vt -3.357345 1.964667
vt 6.837660 1.964667
vt -3.357345 1.964667
vt 6.837660 -0.964667
vt 6.837660 -0.964667
vt -3.357345 -0.964667
vt 6.837660 1.964667
vt 6.837660 1.964667
vt -3.357345 1.964667
vt 6.837660 -0.964667
vt -3.357345 -0.964667
vt -3.357345 1.964667
vt 6.837660 1.964667
vt -3.357345 -0.964667
vt 6.837660 -0.964667
s 0
usemtl None_ULTRA_64_DEMO#1E82F06D#2#1#AE68E014_ciByRGBA.png.006
f 26/64/19 28/70/19 27/67/19 25/61/19
f 28/71/20 32/80/20 31/78/20 27/68/20
f 32/79/21 30/75/21 29/73/21 31/77/21
f 30/76/22 26/65/22 25/62/22 29/74/22
f 25/63/23 27/69/23 31/78/23 29/74/23
f 30/76/24 32/80/24 28/72/24 26/66/24
o Cube.005_Cube.009
v -23.962570 0.041829 12.152426
v -23.962570 6.452206 12.152425
v -23.962570 0.041829 11.614241
v -23.962570 6.452206 11.614240
v -3.446981 0.041829 12.152426
v -3.446981 6.452206 12.152425
v -3.446981 0.041829 11.614241
v -3.446981 6.452206 11.614240
vn -1.0000 -0.0000 -0.0000
vn -0.0000 -0.0000 -1.0000
vn 1.0000 -0.0000 -0.0000
vn -0.0000 -0.0000 1.0000
vn -0.0000 -1.0000 -0.0000
vn -0.0000 1.0000 -0.0000
vt -3.357345 1.964667
vt 6.837660 1.964667
vt -3.357345 -0.964667
vt -3.357345 -0.964667
vt 6.837660 -0.964667
vt -3.357345 1.964667
vt 6.837660 1.964667
vt -3.357345 1.964667
vt 6.837660 -0.964667
vt 6.837660 -0.964667
vt -3.357345 -0.964667
vt 6.837660 1.964667
vt 6.837660 1.964667
vt -3.357345 1.964667
vt 6.837660 -0.964667
vt -3.357345 -0.964667
vt -3.357345 1.964667
vt 6.837660 1.964667
vt -3.357345 -0.964667
vt 6.837660 -0.964667
s 0
usemtl None_ULTRA_64_DEMO#1E82F06D#2#1#AE68E014_ciByRGBA.png.007
f 34/84/25 36/90/25 35/87/25 33/81/25
f 36/91/26 40/100/26 39/98/26 35/88/26
f 40/99/27 38/95/27 37/93/27 39/97/27
f 38/96/28 34/85/28 33/82/28 37/94/28
f 33/83/29 35/89/29 39/98/29 37/94/29
f 38/96/30 40/100/30 36/92/30 34/86/30
o Cube.006_Cube.010
v 3.184653 0.041826 -24.397251
v 3.184653 6.452203 -24.397251
v 3.184653 0.041826 -24.935436
v 3.184653 6.452203 -24.935436
v 23.700241 0.041826 -24.397251
v 23.700241 6.452203 -24.397251
v 23.700241 0.041826 -24.935436
v 23.700241 6.452203 -24.935436
vn -1.0000 -0.0000 -0.0000
vn -0.0000 -0.0000 -1.0000
vn 1.0000 -0.0000 -0.0000
vn -0.0000 -0.0000 1.0000
vn -0.0000 -1.0000 -0.0000
vn -0.0000 1.0000 -0.0000
vt -3.357345 1.964667
vt 6.837660 1.964667
vt -3.357345 -0.964667
vt -3.357345 -0.964667
vt 6.837660 -0.964667
vt -3.357345 1.964667
vt 6.837660 1.964667
vt -3.357345 1.964667
vt 6.837660 -0.964667
vt 6.837660 -0.964667
vt -3.357345 -0.964667
vt 6.837660 1.964667
vt 6.837660 1.964667
vt -3.357345 1.964667
vt 6.837660 -0.964667
vt -3.357345 -0.964667
vt -3.357345 1.964667
vt 6.837660 1.964667
vt -3.357345 -0.964667
vt 6.837660 -0.964667
s 0
usemtl None_ULTRA_64_DEMO#1E82F06D#2#1#AE68E014_ciByRGBA.png.008
f 42/104/31 44/110/31 43/107/31 41/101/31
f 44/111/32 48/120/32 47/118/32 43/108/32
f 48/119/33 46/115/33 45/113/33 47/117/33
f 46/116/34 42/105/34 41/102/34 45/114/34
f 41/103/35 43/109/35 47/118/35 45/114/35
f 46/116/36 48/120/36 44/112/36 42/106/36
o Cube.007_Cube.011
v -23.962570 0.041826 -25.118309
v -23.962570 6.452203 -25.118309
v -23.962570 0.041826 -25.656494
v -23.962570 6.452203 -25.656494
v -3.446981 0.041826 -25.118309
v -3.446981 6.452203 -25.118309
v -3.446981 0.041826 -25.656494
v -3.446981 6.452203 -25.656494
vn -1.0000 -0.0000 -0.0000
vn -0.0000 -0.0000 -1.0000
vn 1.0000 -0.0000 -0.0000
vn -0.0000 -0.0000 1.0000
vn -0.0000 -1.0000 -0.0000
vn -0.0000 1.0000 -0.0000
vt -3.357345 1.964667
vt 6.837660 1.964667
vt -3.357345 -0.964667
vt -3.357345 -0.964667
vt 6.837660 -0.964667
vt -3.357345 1.964667
vt 6.837660 1.964667
vt -3.357345 1.964667
vt 6.837660 -0.964667
vt 6.837660 -0.964667
vt -3.357345 -0.964667
vt 6.837660 1.964667
vt 6.837660 1.964667
vt -3.357345 1.964667
vt 6.837660 -0.964667
vt -3.357345 -0.964667
vt -3.357345 1.964667
vt 6.837660 1.964667
vt -3.357345 -0.964667
vt 6.837660 -0.964667
s 0
usemtl None_ULTRA_64_DEMO#1E82F06D#2#1#AE68E014_ciByRGBA.png.009
f 50/124/37 52/130/37 51/127/37 49/121/37
f 52/131/38 56/140/38 55/138/38 51/128/38
f 56/139/39 54/135/39 53/133/39 55/137/39
f 54/136/40 50/125/40 49/122/40 53/134/40
f 49/123/41 51/129/41 55/138/41 53/134/41
f 54/136/42 56/140/42 52/132/42 50/126/42
o Cube.008_Cube.012
v -3.563609 0.041826 -24.862881
v -3.563609 6.452203 -24.862881
v -3.563609 0.041826 -31.043074
v -3.563609 6.452203 -31.043074
v -3.307098 0.041826 -24.862881
v -3.307098 6.452203 -24.862881
v -3.307098 0.041826 -31.043074
v -3.307098 6.452203 -31.043074
vn -1.0000 -0.0000 -0.0000
vn -0.0000 -0.0000 -1.0000
vn 1.0000 -0.0000 -0.0000
vn -0.0000 -0.0000 1.0000
vn -0.0000 -1.0000 -0.0000
vn -0.0000 1.0000 -0.0000
vt -0.919159 1.919159
vt 1.919159 1.919159
vt -0.919159 -0.919159
vt -0.919159 -0.919159
vt 1.919159 -0.919159
vt -0.919159 1.919159
vt 1.919159 1.919159
vt -0.919159 1.919159
vt 1.919159 -0.919159
vt 1.919159 -0.919159
vt -0.919159 -0.919159
vt 1.919159 1.919159
vt 1.919159 1.919159
vt -0.919159 1.919159
vt 1.919159 -0.919159
vt -0.919159 -0.919159
vt -0.919159 1.919159
vt 1.919159 1.919159
vt -0.919159 -0.919159
vt 1.919159 -0.919159
s 0
usemtl None_ULTRA_64_DEMO#1E82F06D#2#1#AE68E014_ciByRGBA.png.010
f 58/144/43 60/150/43 59/147/43 57/141/43
f 60/151/44 64/160/44 63/158/44 59/148/44
f 64/159/45 62/155/45 61/153/45 63/157/45
f 62/156/46 58/145/46 57/142/46 61/154/46
f 57/143/47 59/149/47 63/158/47 61/154/47
f 62/156/48 64/160/48 60/152/48 58/146/48
o Cube.009_Cube.013
v 2.938559 0.041826 -24.862881
v 2.938559 6.452203 -24.862881
v 2.938559 0.041826 -31.043074
v 2.938559 6.452203 -31.043074
v 3.195071 0.041826 -24.862881
v 3.195071 6.452203 -24.862881
v 3.195071 0.041826 -31.043074
v 3.195071 6.452203 -31.043074
vn -1.0000 -0.0000 -0.0000
vn -0.0000 -0.0000 -1.0000
vn 1.0000 -0.0000 -0.0000
vn -0.0000 -0.0000 1.0000
vn -0.0000 -1.0000 -0.0000
vn -0.0000 1.0000 -0.0000
vt -0.919159 1.919159
vt 1.919159 1.919159
vt -0.919159 -0.919159
vt -0.919159 -0.919159
vt 1.919159 -0.919159
vt -0.919159 1.919159
vt 1.919159 1.919159
vt -0.919159 1.919159
vt 1.919159 -0.919159
vt 1.919159 -0.919159
vt -0.919159 -0.919159
vt 1.919159 1.919159
vt 1.919159 1.919159
vt -0.919159 1.919159
vt 1.919159 -0.919159
vt -0.919159 -0.919159
vt -0.919159 1.919159
vt 1.919159 1.919159
vt -0.919159 -0.919159
vt 1.919159 -0.919159
s 0
usemtl None_ULTRA_64_DEMO#1E82F06D#2#1#AE68E014_ciByRGBA.png.011
f 66/164/49 68/170/49 67/167/49 65/161/49
f 68/171/50 72/180/50 71/178/50 67/168/50
f 72/179/51 70/175/51 69/173/51 71/177/51
f 70/176/52 66/165/52 65/162/52 69/174/52
f 65/163/53 67/169/53 71/178/53 69/174/53
f 70/176/54 72/180/54 68/172/54 66/166/54
o Cube.010_Cube.014
v -8.887462 0.041829 18.244907
v -8.887462 6.452207 18.244907
v -8.887462 0.041829 17.706722
v -8.887462 6.452207 17.706722
v 11.628126 0.041829 18.244907
v 11.628126 6.452207 18.244907
v 11.628126 0.041829 17.706722
v 11.628126 6.452207 17.706722
vn -1.0000 -0.0000 -0.0000
vn -0.0000 -0.0000 -1.0000
vn 1.0000 -0.0000 -0.0000
vn -0.0000 -0.0000 1.0000
vn -0.0000 -1.0000 -0.0000
vn -0.0000 1.0000 -0.0000
vt -3.357345 1.964667
vt 6.837660 1.964667
vt -3.357345 -0.964667
vt -3.357345 -0.964667
vt 6.837660 -0.964667
vt -3.357345 1.964667
vt 6.837660 1.964667
vt -3.357345 1.964667
vt 6.837660 -0.964667
vt 6.837660 -0.964667
vt -3.357345 -0.964667
vt 6.837660 1.964667
vt 6.837660 1.964667
vt -3.357345 1.964667
vt 6.837660 -0.964667
vt -3.357345 -0.964667
vt -3.357345 1.964667
vt 6.837660 1.964667
vt -3.357345 -0.964667
vt 6.837660 -0.964667
s 0
usemtl None_ULTRA_64_DEMO#1E82F06D#2#1#AE68E014_ciByRGBA.png.012
f 74/184/55 76/190/55 75/187/55 73/181/55
f 76/191/56 80/200/56 79/198/56 75/188/56
f 80/199/57 78/195/57 77/193/57 79/197/57
f 78/196/58 74/185/58 73/182/58 77/194/58
f 73/183/59 75/189/59 79/198/59 77/194/59
f 78/196/60 80/200/60 76/192/60 74/186/60
o Cube.011_Cube.015
v -8.887462 0.041826 -30.482300
v -8.887462 6.452203 -30.482300
v -8.887462 0.041826 -31.020485
v -8.887462 6.452203 -31.020485
v 11.628126 0.041826 -30.482300
v 11.628126 6.452203 -30.482300
v 11.628126 0.041826 -31.020485
v 11.628126 6.452203 -31.020485
vn -1.0000 -0.0000 -0.0000
vn -0.0000 -0.0000 -1.0000
vn 1.0000 -0.0000 -0.0000
vn -0.0000 -0.0000 1.0000
vn -0.0000 -1.0000 -0.0000
vn -0.0000 1.0000 -0.0000
vt -3.357345 1.964667
vt 6.837660 1.964667
vt -3.357345 -0.964667
vt -3.357345 -0.964667
vt 6.837660 -0.964667
vt -3.357345 1.964667
vt 6.837660 1.964667
vt -3.357345 1.964667
vt 6.837660 -0.964667
vt 6.837660 -0.964667
vt -3.357345 -0.964667
vt 6.837660 1.964667
vt 6.837660 1.964667
vt -3.357345 1.964667
vt 6.837660 -0.964667
vt -3.357345 -0.964667
vt -3.357345 1.964667
vt 6.837660 1.964667
vt -3.357345 -0.964667
vt 6.837660 -0.964667
s 0
usemtl None_ULTRA_64_DEMO#1E82F06D#2#1#AE68E014_ciByRGBA.png.013
f 82/204/61 84/210/61 83/207/61 81/201/61
f 84/211/62 88/220/62 87/218/62 83/208/62
f 88/219/63 86/215/63 85/213/63 87/217/63
f 86/216/64 82/205/64 81/202/64 85/214/64
f 81/203/65 83/209/65 87/218/65 85/214/65
f 86/216/66 88/220/66 84/212/66 82/206/66
o Cube.012_Cube.017
v -1.706831 0.021688 -3.493463
v -1.706831 0.729723 -3.493463
v -1.706831 0.021687 -8.199409
v -1.706831 0.729722 -8.199409
v 1.634095 0.021688 -3.493463
v 1.634095 0.729723 -3.493463
v 1.634095 0.021687 -8.199409
v 1.634095 0.729722 -8.199409
vn -1.0000 -0.0000 -0.0000
vn -0.0000 -0.0000 -1.0000
vn 1.0000 -0.0000 -0.0000
vn -0.0000 -0.0000 1.0000
vn -0.0000 -1.0000 -0.0000
vn -0.0000 1.0000 -0.0000
vt -2.834066 1.808551
vt 6.339184 1.808551
vt -2.834066 -0.808551
vt -2.834066 -0.808551
vt 6.339184 -0.808551
vt -2.834066 1.808551
vt 6.339184 1.808551
vt -2.834066 1.808551
vt 6.339184 -0.808551
vt 6.339184 -0.808551
vt -2.834066 -0.808551
vt 6.339184 1.808551
vt 6.339184 1.808551
vt -2.834066 1.808551
vt 6.339184 -0.808551
vt -2.834066 -0.808551
vt -2.834066 1.808551
vt 6.339184 1.808551
vt -2.834066 -0.808551
vt 6.339184 -0.808551
s 0
usemtl None
f 90/224/67 92/230/67 91/227/67 89/221/67
f 92/231/68 96/240/68 95/238/68 91/228/68
f 96/239/69 94/235/69 93/233/69 95/237/69
f 94/236/70 90/225/70 89/222/70 93/234/70
f 89/223/71 91/229/71 95/238/71 93/234/71
f 94/236/72 96/240/72 92/232/72 90/226/72
o Cube.013_Cube.006
v -1.706831 -0.701560 -2.653684
v -1.706831 0.006475 -2.653684
v -1.706831 0.021688 -3.566535
v -1.706831 0.729723 -3.566535
v 1.634095 -0.701560 -2.653684
v 1.634095 0.006475 -2.653684
v 1.634095 0.021688 -3.566535
v 1.634095 0.729723 -3.566535
vn -1.0000 -0.0000 -0.0000
vn -0.0000 -0.0000 -1.0000
vn 1.0000 -0.0000 -0.0000
vn -0.0000 -0.0000 1.0000
vn -0.0000 -0.7838 -0.6210
vn -0.0000 0.7838 0.6210
vt -0.445311 1.769972
vt 1.023657 1.769972
vt -0.445311 -0.769972
vt -0.445311 -0.769972
vt 1.023657 -0.769972
vt -0.445311 1.769972
vt 1.023657 1.769972
vt -0.445311 1.769972
vt 1.023657 -0.769972
vt 1.023657 -0.769972
vt -0.445311 -0.769972
vt 1.023657 1.769972
vt 1.023657 1.769972
vt -0.445311 1.769972
vt 1.023657 -0.769972
vt -0.445311 -0.769972
vt -0.445311 1.769972
vt 1.023657 1.769972
vt -0.445311 -0.769972
vt 1.023657 -0.769972
s 0
usemtl None_5.png.004
f 98/244/73 100/250/73 99/247/73 97/241/73
f 100/251/74 104/260/74 103/258/74 99/248/74
f 104/259/75 102/255/75 101/253/75 103/257/75
f 102/256/76 98/245/76 97/242/76 101/254/76
f 97/243/77 99/249/77 103/258/77 101/254/77
f 102/256/78 104/260/78 100/252/78 98/246/78
o Cube.014_Cube.016
v -1.706831 0.019942 -8.181839
v -1.706831 0.727977 -8.181839
v -1.706831 -0.559735 -9.094690
v -1.706831 0.005499 -9.094690
v 1.634095 0.019942 -8.181839
v 1.634095 0.727977 -8.181839
v 1.634095 -0.559735 -9.094690
v 1.634095 0.005499 -9.094690
vn -1.0000 -0.0000 -0.0000
vn -0.0000 -0.0000 -1.0000
vn 1.0000 -0.0000 -0.0000
vn -0.0000 -0.0000 1.0000
vn -0.0000 -0.8442 0.5361
vn -0.0000 0.7841 -0.6206
vt -0.445311 1.769972
vt 1.023657 1.769972
vt -0.445311 -0.769972
vt -0.445311 -0.769972
vt 1.023657 -0.769972
vt -0.445311 1.769972
vt 1.023657 1.769972
vt -0.445311 1.769972
vt 1.023657 -0.769972
vt 1.023657 -0.769972
vt -0.445311 -0.769972
vt 1.023657 1.769972
vt 1.023657 1.769972
vt -0.445311 1.769972
vt 1.023657 -0.769972
vt -0.445311 -0.769972
vt -0.445311 1.769972
vt 1.023657 1.769972
vt -0.445311 -0.769972
vt 1.023657 -0.769972
s 0
usemtl None_5.png.005
f 106/264/79 108/270/79 107/267/79 105/261/79
f 108/271/80 112/280/80 111/278/80 107/268/80
f 112/279/81 110/275/81 109/273/81 111/277/81
f 110/276/82 106/265/82 105/262/82 109/274/82
f 105/263/83 107/269/83 111/278/83 109/274/83
f 110/276/84 112/280/84 108/272/84 106/266/84
o Cube_Cube.002
v -3.563609 0.041829 18.278374
v -3.563609 6.452207 18.278374
v -3.563609 0.041829 12.098182
v -3.563609 6.452206 12.098181
v -3.307098 0.041829 18.278374
v -3.307098 6.452207 18.278374
v -3.307098 0.041829 12.098182
v -3.307098 6.452206 12.098181
vn -1.0000 -0.0000 -0.0000
vn -0.0000 -0.0000 -1.0000
vn 1.0000 -0.0000 -0.0000
vn -0.0000 -0.0000 1.0000
vn -0.0000 -1.0000 -0.0000
vn -0.0000 1.0000 -0.0000
vt -0.919159 1.919159
vt 1.919159 1.919159
vt -0.919159 -0.919159
vt -0.919159 -0.919159
vt 1.919159 -0.919159
vt -0.919159 1.919159
vt 1.919159 1.919159
vt -0.919159 1.919159
vt 1.919159 -0.919159
vt 1.919159 -0.919159
vt -0.919159 -0.919159
vt 1.919159 1.919159
vt 1.919159 1.919159
vt -0.919159 1.919159
vt 1.919159 -0.919159
vt -0.919159 -0.919159
vt -0.919159 1.919159
vt 1.919159 1.919159
vt -0.919159 -0.919159
vt 1.919159 -0.919159
s 0
usemtl None_ULTRA_64_DEMO#1E82F06D#2#1#AE68E014_ciByRGBA.png
f 114/284/85 116/290/85 115/287/85 113/281/85
f 116/291/86 120/300/86 119/298/86 115/288/86
f 120/299/87 118/295/87 117/293/87 119/297/87
f 118/296/88 114/285/88 113/282/88 117/294/88
f 113/283/89 115/289/89 119/298/89 117/294/89
f 118/296/90 120/300/90 116/292/90 114/286/90
o Plane
v -9.635310 0.041034 17.526688
v 12.734675 0.041034 17.183058
v -24.794777 0.041030 -25.954830
v -24.699818 0.041033 12.586630
v -9.609845 0.041033 18.506836
v 24.617567 0.041033 12.629080
v -9.759607 0.041041 12.742632
v 12.772029 0.041033 18.262255
v -3.975330 0.041028 12.812111
v -3.953658 0.041031 17.456345
v 12.575970 0.041040 12.597801
v 24.330494 0.041030 -25.119822
v 3.138613 0.041030 -31.397728
v 3.868033 0.041026 12.544904
v 3.917126 0.041029 17.203857
v -3.941802 0.041030 -31.379553
v 3.193811 0.041027 -25.122406
v -3.764999 0.041023 -26.081923
v -24.751925 0.041031 -8.561840
v -24.737389 0.041032 -2.661258
v 24.500338 0.041032 -2.785967
v 24.450104 0.041031 -9.391636
vn -0.0000 1.0000 -0.0000
vt -4.925786 -12.820571
vt 7.645750 -12.627456
vt -13.445136 11.615273
vt -13.391770 -10.044344
vt -4.911474 -13.371396
vt 14.323723 -10.068201
vt -4.995638 -10.132017
vt 7.666742 -13.233946
vt -1.745031 -10.171062
vt -1.732798 -12.781039
vt 7.556562 -10.050623
vt 14.162395 11.146011
vt 2.252933 14.674083
vt 2.662758 -10.020892
vt 2.690443 -12.639146
vt -1.726135 14.663869
vt 2.283976 11.147120
vt -1.626765 11.686429
vt -13.421053 1.840721
vt -13.412883 -1.475301
vt 14.257843 -1.405218
vt 14.229612 2.307050
s 0
usemtl None_ULTRA_64_DEMO#1E82F06D#2#1#AE68E014_ciByRGBA.png
f 139/319/91 142/322/91 132/312/91 137/317/91 133/313/91 136/316/91 138/318/91 123/303/91
f 125/305/91 128/308/91 122/302/91 135/315/91 134/314/91 131/311/91 126/306/91 141/321/91 140/320/91 124/304/91 127/307/91 129/309/91 130/310/91 121/301/91
o Plane.001
v -9.343996 6.480830 17.526688
v 13.025990 6.480830 17.183058
v -24.503462 6.480825 -25.954830
v -24.408504 6.480828 12.586629
v -9.318530 6.480828 18.506836
v 24.908880 6.480828 12.629079
v -9.468293 6.480836 12.742631
v 13.063343 6.480828 18.262255
v -3.684016 6.480824 12.812110
v -3.662343 6.480826 17.456345
v 12.867284 6.480835 12.597800
v 24.621809 6.480825 -25.119822
v 3.429928 6.480824 -31.397728
v 4.159348 6.480821 12.544903
v 4.208440 6.480825 17.203857
v -3.650488 6.480824 -31.379553
v 3.485125 6.480822 -25.122406
v -3.473684 6.480818 -26.081923
vn -0.0000 1.0000 -0.0000
vt -4.925786 -12.820571
vt 7.645750 -12.627456
vt -13.445136 11.615273
vt -13.391770 -10.044344
vt -4.911474 -13.371396
vt 14.323723 -10.068201
vt -4.995638 -10.132017
vt 7.666742 -13.233946
vt -1.745031 -10.171062
vt -1.732798 -12.781039
vt 7.556562 -10.050623
vt 14.162395 11.146011
vt 2.252933 14.674083
vt 2.662758 -10.020892
vt 2.690443 -12.639146
vt -1.726135 14.663869
vt 2.283976 11.147120
vt -1.626765 11.686429
s 0
usemtl None_ULTRA_64_DEMO#1E82F06D#2#1#AE68E014_ciByRGBA.png.014
f 147/327/92 150/330/92 144/324/92 157/337/92 156/336/92 153/333/92 148/328/92 154/334/92 159/339/92 155/335/92 158/338/92 160/340/92 145/325/92 146/326/92 149/329/92 151/331/92 152/332/92 143/323/92
o Cube.001_Cube.001
v -2.452472 4.698314 14.930367
v -2.452472 4.701965 14.930367
v -2.452472 4.698314 14.930359
v -2.452472 4.701965 14.930359
v 0.637785 3.977082 14.932465
v 0.637785 5.423197 14.932465
v 0.637785 3.977082 14.928262
v 0.637785 5.423197 14.928262
v 0.601675 -0.121129 14.997375
v 0.601675 5.496821 14.997375
v 0.601675 -0.121129 14.818159
v 0.601675 5.496821 14.818158
v 0.780892 -0.121129 14.997375
v 0.780892 5.496821 14.997375
v 0.780892 -0.121129 14.818159
v 0.780892 5.496821 14.818158
vn -1.0000 -0.0000 -0.0000
vn -0.0007 -0.0000 -1.0000
vn 1.0000 -0.0000 -0.0000
vn -0.0007 -0.0000 1.0000
vn -0.2273 -0.9738 -0.0000
vn -0.2274 0.9738 -0.0003
vn -0.0000 -0.0000 -1.0000
vn -0.0000 -0.0000 1.0000
vn -0.0000 -1.0000 -0.0000
vn -0.0000 1.0000 -0.0000
vt 0.999651 -0.001395
vt -0.000348 0.001396
vt 1.000348 0.998604
vt 1.000348 0.998604
vt 0.000349 1.001395
vt 0.999651 -0.001395
vt -0.000348 0.001396
vt 0.999651 -0.001395
vt 0.000349 1.001395
vt 0.000349 1.001395
vt 1.000348 0.998604
vt -0.000348 0.001396
vt -0.000348 0.001396
vt 0.999651 -0.001395
vt 0.000349 1.001395
vt 1.000348 0.998604
vt 0.999651 -0.001395
vt -0.000348 0.001396
vt 1.000348 0.998604
vt 0.000349 1.001395
vt 0.000000 2.771764
vt 1.000000 2.771764
vt 0.000000 0.000000
vt 0.000000 0.000000
vt 1.000000 0.000000
vt 0.000000 2.771764
vt 1.000000 2.771764
vt 0.000000 2.771764
vt 1.000000 0.000000
vt 1.000000 0.000000
vt 0.000000 0.000000
vt 1.000000 2.771764
vt 1.000000 2.771764
vt 0.000000 2.771764
vt 1.000000 0.000000
vt 0.000000 0.000000
vt 0.000000 2.771764
vt 1.000000 2.771764
vt 0.000000 0.000000
vt 1.000000 0.000000
s 0
usemtl None.001
f 162/344/93 164/350/93 163/347/93 161/341/93
f 164/351/94 168/360/94 167/358/94 163/348/94
f 168/359/95 166/355/95 165/353/95 167/357/95
f 166/356/96 162/345/96 161/342/96 165/354/96
f 161/343/97 163/349/97 167/358/97 165/354/97
f 166/356/98 168/360/98 164/352/98 162/346/98
usemtl None_pole.png
f 170/364/93 172/370/93 171/367/93 169/361/93
f 172/371/99 176/380/99 175/378/99 171/368/99
f 176/379/95 174/375/95 173/373/95 175/377/95
f 174/376/100 170/365/100 169/362/100 173/374/100
f 169/363/101 171/369/101 175/378/101 173/374/101
f 174/376/102 176/380/102 172/372/102 170/366/102
