# Blender 3.5.1
# www.blender.org
mtllib 1-2_col new.mtl
o Plane.002
v -79.920319 -26.140713 70.117867
v 63.693024 -26.140713 70.117867
v -79.920319 -26.140713 -73.495476
v 63.693024 -26.140713 -73.495476
vn -0.0000 1.0000 -0.0000
s 0
usemtl Material.001
f 1//1 2//1 4//1 3//1
o Plane.001
v -9.343996 6.480832 17.526688
v 13.025990 6.480832 17.183058
v -24.503462 6.480823 -25.954830
v -24.408504 6.480829 12.586628
v -9.318530 6.480829 18.506836
v 24.908880 6.480829 12.629078
v -9.468293 6.480837 12.742630
v 13.063343 6.480829 18.262255
v -3.684016 6.480825 12.812109
v -3.662343 6.480827 17.456345
v 12.867284 6.480836 12.597799
v 24.621809 6.480823 -25.119822
v 3.429928 6.480822 -31.397728
v 4.159348 6.480822 12.544902
v 4.208440 6.480826 17.203857
v -3.650488 6.480822 -31.379553
v 3.485125 6.480820 -25.122406
v -3.473684 6.480816 -26.081923
vn -0.0000 1.0000 -0.0000
vt -4.925786 -12.820571
vt 7.645750 -12.627456
vt -13.445136 11.615273
vt -13.391770 -10.044344
vt -4.911474 -13.371396
vt 14.323723 -10.068201
vt -4.995638 -10.132017
vt 7.666742 -13.233946
vt -1.745031 -10.171062
vt -1.732798 -12.781039
vt 7.556562 -10.050623
vt 14.162395 11.146011
vt 2.252933 14.674083
vt 2.662758 -10.020892
vt 2.690443 -12.639146
vt -1.726135 14.663869
vt 2.283976 11.147120
vt -1.626765 11.686429
s 0
usemtl None_ULTRA_64_DEMO#1E82F06D#2#1#AE68E014_ciByRGBA.png.014
f 9/5/2 12/8/2 6/2/2 19/15/2 18/14/2 15/11/2 10/6/2 16/12/2 21/17/2 17/13/2 20/16/2 22/18/2 7/3/2 8/4/2 11/7/2 13/9/2 14/10/2 5/1/2
o Plane
v -9.635310 0.041035 17.526688
v 12.734675 0.041035 17.183058
v -24.794777 0.041028 -25.954830
v -24.699818 0.041034 12.586630
v -9.609845 0.041034 18.506836
v 24.617567 0.041034 12.629080
v -9.759607 0.041042 12.742632
v 12.772029 0.041034 18.262255
v -3.975330 0.041029 12.812111
v -3.953658 0.041032 17.456345
v 12.575970 0.041041 12.597801
v 24.330494 0.041028 -25.119822
v 3.138613 0.041028 -31.397728
v 3.868033 0.041027 12.544904
v 3.917126 0.041030 17.203857
v -3.941802 0.041028 -31.379553
v 3.193811 0.041025 -25.122406
v -3.764999 0.041021 -26.081923
v -24.751925 0.041030 -8.561840
v -24.737389 0.041032 -2.661258
v 24.500338 0.041032 -2.785967
v 24.450104 0.041030 -9.391636
vn -0.0000 1.0000 -0.0000
vt -4.925786 -12.820571
vt 7.645750 -12.627456
vt -13.445136 11.615273
vt -13.391770 -10.044344
vt -4.911474 -13.371396
vt 14.323723 -10.068201
vt -4.995638 -10.132017
vt 7.666742 -13.233946
vt -1.745031 -10.171062
vt -1.732798 -12.781039
vt 7.556562 -10.050623
vt 14.162395 11.146011
vt 2.252933 14.674083
vt 2.662758 -10.020892
vt 2.690443 -12.639146
vt -1.726135 14.663869
vt 2.283976 11.147120
vt -1.626765 11.686429
vt -13.421053 1.840721
vt -13.412883 -1.475301
vt 14.257843 -1.405218
vt 14.229612 2.307050
s 0
usemtl None_ULTRA_64_DEMO#1E82F06D#2#1#AE68E014_ciByRGBA.png
f 41/37/3 44/40/3 34/30/3 39/35/3 35/31/3 38/34/3 40/36/3 25/21/3
f 27/23/3 30/26/3 24/20/3 37/33/3 36/32/3 33/29/3 28/24/3 43/39/3 42/38/3 26/22/3 29/25/3 31/27/3 32/28/3 23/19/3
o Cube_Cube.002
v -3.563609 0.041830 18.278374
v -3.563609 6.452209 18.278374
v -3.563609 0.041830 12.098182
v -3.563609 6.452207 12.098180
v -3.307098 0.041830 18.278374
v -3.307098 6.452209 18.278374
v -3.307098 0.041830 12.098182
v -3.307098 6.452207 12.098180
vn -1.0000 -0.0000 -0.0000
vn -0.0000 -0.0000 -1.0000
vn 1.0000 -0.0000 -0.0000
vn -0.0000 -0.0000 1.0000
vn -0.0000 -1.0000 -0.0000
vn -0.0000 1.0000 -0.0000
vt -0.919159 1.919159
vt 1.919159 1.919159
vt -0.919159 -0.919159
vt -0.919159 -0.919159
vt 1.919159 -0.919159
vt -0.919159 1.919159
vt 1.919159 1.919159
vt -0.919159 1.919159
vt 1.919159 -0.919159
vt 1.919159 -0.919159
vt -0.919159 -0.919159
vt 1.919159 1.919159
vt 1.919159 1.919159
vt -0.919159 1.919159
vt 1.919159 -0.919159
vt -0.919159 -0.919159
vt -0.919159 1.919159
vt 1.919159 1.919159
vt -0.919159 -0.919159
vt 1.919159 -0.919159
s 0
usemtl None_ULTRA_64_DEMO#1E82F06D#2#1#AE68E014_ciByRGBA.png
f 46/44/4 48/50/4 47/47/4 45/41/4
f 48/51/5 52/60/5 51/58/5 47/48/5
f 52/59/6 50/55/6 49/53/6 51/57/6
f 50/56/7 46/45/7 45/42/7 49/54/7
f 45/43/8 47/49/8 51/58/8 49/54/8
f 50/56/9 52/60/9 48/52/9 46/46/9
o Cube.014_Cube.016
v -1.706831 0.019941 -8.181839
v -1.706831 0.727976 -8.181839
v -1.706831 -0.559736 -9.094690
v -1.706831 0.005498 -9.094690
v 1.634095 0.019941 -8.181839
v 1.634095 0.727976 -8.181839
v 1.634095 -0.559736 -9.094690
v 1.634095 0.005498 -9.094690
vn -1.0000 -0.0000 -0.0000
vn -0.0000 -0.0000 -1.0000
vn 1.0000 -0.0000 -0.0000
vn -0.0000 -0.0000 1.0000
vn -0.0000 -0.8442 0.5361
vn -0.0000 0.7841 -0.6206
vt -0.445311 1.769972
vt 1.023657 1.769972
vt -0.445311 -0.769972
vt -0.445311 -0.769972
vt 1.023657 -0.769972
vt -0.445311 1.769972
vt 1.023657 1.769972
vt -0.445311 1.769972
vt 1.023657 -0.769972
vt 1.023657 -0.769972
vt -0.445311 -0.769972
vt 1.023657 1.769972
vt 1.023657 1.769972
vt -0.445311 1.769972
vt 1.023657 -0.769972
vt -0.445311 -0.769972
vt -0.445311 1.769972
vt 1.023657 1.769972
vt -0.445311 -0.769972
vt 1.023657 -0.769972
s 0
usemtl None_5.png.005
f 54/64/10 56/70/10 55/67/10 53/61/10
f 56/71/11 60/80/11 59/78/11 55/68/11
f 60/79/12 58/75/12 57/73/12 59/77/12
f 58/76/13 54/65/13 53/62/13 57/74/13
f 53/63/14 55/69/14 59/78/14 57/74/14
f 58/76/15 60/80/15 56/72/15 54/66/15
o Cube.013_Cube.006
v -1.706831 -0.701560 -2.653684
v -1.706831 0.006475 -2.653684
v -1.706831 0.021688 -3.566535
v -1.706831 0.729723 -3.566535
v 1.634095 -0.701560 -2.653684
v 1.634095 0.006475 -2.653684
v 1.634095 0.021688 -3.566535
v 1.634095 0.729723 -3.566535
vn -1.0000 -0.0000 -0.0000
vn -0.0000 -0.0000 -1.0000
vn 1.0000 -0.0000 -0.0000
vn -0.0000 -0.0000 1.0000
vn -0.0000 -0.7838 -0.6210
vn -0.0000 0.7838 0.6210
vt -0.445311 1.769972
vt 1.023657 1.769972
vt -0.445311 -0.769972
vt -0.445311 -0.769972
vt 1.023657 -0.769972
vt -0.445311 1.769972
vt 1.023657 1.769972
vt -0.445311 1.769972
vt 1.023657 -0.769972
vt 1.023657 -0.769972
vt -0.445311 -0.769972
vt 1.023657 1.769972
vt 1.023657 1.769972
vt -0.445311 1.769972
vt 1.023657 -0.769972
vt -0.445311 -0.769972
vt -0.445311 1.769972
vt 1.023657 1.769972
vt -0.445311 -0.769972
vt 1.023657 -0.769972
s 0
usemtl None_5.png.004
f 62/84/16 64/90/16 63/87/16 61/81/16
f 64/91/17 68/100/17 67/98/17 63/88/17
f 68/99/18 66/95/18 65/93/18 67/97/18
f 66/96/19 62/85/19 61/82/19 65/94/19
f 61/83/20 63/89/20 67/98/20 65/94/20
f 66/96/21 68/100/21 64/92/21 62/86/21
o Cube.012_Cube.017
v -1.706831 0.021688 -3.493463
v -1.706831 0.729723 -3.493463
v -1.706831 0.021686 -8.199409
v -1.706831 0.729721 -8.199409
v 1.634095 0.021688 -3.493463
v 1.634095 0.729723 -3.493463
v 1.634095 0.021686 -8.199409
v 1.634095 0.729721 -8.199409
vn -1.0000 -0.0000 -0.0000
vn -0.0000 -0.0000 -1.0000
vn 1.0000 -0.0000 -0.0000
vn -0.0000 -0.0000 1.0000
vn -0.0000 -1.0000 -0.0000
vn -0.0000 1.0000 -0.0000
vt -2.834066 1.808551
vt 6.339184 1.808551
vt -2.834066 -0.808551
vt -2.834066 -0.808551
vt 6.339184 -0.808551
vt -2.834066 1.808551
vt 6.339184 1.808551
vt -2.834066 1.808551
vt 6.339184 -0.808551
vt 6.339184 -0.808551
vt -2.834066 -0.808551
vt 6.339184 1.808551
vt 6.339184 1.808551
vt -2.834066 1.808551
vt 6.339184 -0.808551
vt -2.834066 -0.808551
vt -2.834066 1.808551
vt 6.339184 1.808551
vt -2.834066 -0.808551
vt 6.339184 -0.808551
s 0
usemtl None
f 70/104/22 72/110/22 71/107/22 69/101/22
f 72/111/23 76/120/23 75/118/23 71/108/23
f 76/119/24 74/115/24 73/113/24 75/117/24
f 74/116/25 70/105/25 69/102/25 73/114/25
f 69/103/26 71/109/26 75/118/26 73/114/26
f 74/116/27 76/120/27 72/112/27 70/106/27
o Cube.011_Cube.015
v -8.887462 0.041824 -30.482300
v -8.887462 6.452200 -30.482300
v -8.887462 0.041824 -31.020485
v -8.887462 6.452200 -31.020485
v 11.628126 0.041824 -30.482300
v 11.628126 6.452200 -30.482300
v 11.628126 0.041824 -31.020485
v 11.628126 6.452200 -31.020485
vn -1.0000 -0.0000 -0.0000
vn -0.0000 -0.0000 -1.0000
vn 1.0000 -0.0000 -0.0000
vn -0.0000 -0.0000 1.0000
vn -0.0000 -1.0000 -0.0000
vn -0.0000 1.0000 -0.0000
vt -3.357345 1.964667
vt 6.837660 1.964667
vt -3.357345 -0.964667
vt -3.357345 -0.964667
vt 6.837660 -0.964667
vt -3.357345 1.964667
vt 6.837660 1.964667
vt -3.357345 1.964667
vt 6.837660 -0.964667
vt 6.837660 -0.964667
vt -3.357345 -0.964667
vt 6.837660 1.964667
vt 6.837660 1.964667
vt -3.357345 1.964667
vt 6.837660 -0.964667
vt -3.357345 -0.964667
vt -3.357345 1.964667
vt 6.837660 1.964667
vt -3.357345 -0.964667
vt 6.837660 -0.964667
s 0
usemtl None_ULTRA_64_DEMO#1E82F06D#2#1#AE68E014_ciByRGBA.png.013
f 78/124/28 80/130/28 79/127/28 77/121/28
f 80/131/29 84/140/29 83/138/29 79/128/29
f 84/139/30 82/135/30 81/133/30 83/137/30
f 82/136/31 78/125/31 77/122/31 81/134/31
f 77/123/32 79/129/32 83/138/32 81/134/32
f 82/136/33 84/140/33 80/132/33 78/126/33
o Cube.010_Cube.014
v -8.887462 0.041830 18.244907
v -8.887462 6.452209 18.244907
v -8.887462 0.041830 17.706722
v -8.887462 6.452209 17.706722
v 11.628126 0.041830 18.244907
v 11.628126 6.452209 18.244907
v 11.628126 0.041830 17.706722
v 11.628126 6.452209 17.706722
vn -1.0000 -0.0000 -0.0000
vn -0.0000 -0.0000 -1.0000
vn 1.0000 -0.0000 -0.0000
vn -0.0000 -0.0000 1.0000
vn -0.0000 -1.0000 -0.0000
vn -0.0000 1.0000 -0.0000
vt -3.357345 1.964667
vt 6.837660 1.964667
vt -3.357345 -0.964667
vt -3.357345 -0.964667
vt 6.837660 -0.964667
vt -3.357345 1.964667
vt 6.837660 1.964667
vt -3.357345 1.964667
vt 6.837660 -0.964667
vt 6.837660 -0.964667
vt -3.357345 -0.964667
vt 6.837660 1.964667
vt 6.837660 1.964667
vt -3.357345 1.964667
vt 6.837660 -0.964667
vt -3.357345 -0.964667
vt -3.357345 1.964667
vt 6.837660 1.964667
vt -3.357345 -0.964667
vt 6.837660 -0.964667
s 0
usemtl None_ULTRA_64_DEMO#1E82F06D#2#1#AE68E014_ciByRGBA.png.012
f 86/144/34 88/150/34 87/147/34 85/141/34
f 88/151/35 92/160/35 91/158/35 87/148/35
f 92/159/36 90/155/36 89/153/36 91/157/36
f 90/156/37 86/145/37 85/142/37 89/154/37
f 85/143/38 87/149/38 91/158/38 89/154/38
f 90/156/39 92/160/39 88/152/39 86/146/39
o Cube.009_Cube.013
v 2.938559 0.041824 -24.862881
v 2.938559 6.452201 -24.862881
v 2.938559 0.041824 -31.043074
v 2.938559 6.452200 -31.043074
v 3.195071 0.041824 -24.862881
v 3.195071 6.452201 -24.862881
v 3.195071 0.041824 -31.043074
v 3.195071 6.452200 -31.043074
vn -1.0000 -0.0000 -0.0000
vn -0.0000 -0.0000 -1.0000
vn 1.0000 -0.0000 -0.0000
vn -0.0000 -0.0000 1.0000
vn -0.0000 -1.0000 -0.0000
vn -0.0000 1.0000 -0.0000
vt -0.919159 1.919159
vt 1.919159 1.919159
vt -0.919159 -0.919159
vt -0.919159 -0.919159
vt 1.919159 -0.919159
vt -0.919159 1.919159
vt 1.919159 1.919159
vt -0.919159 1.919159
vt 1.919159 -0.919159
vt 1.919159 -0.919159
vt -0.919159 -0.919159
vt 1.919159 1.919159
vt 1.919159 1.919159
vt -0.919159 1.919159
vt 1.919159 -0.919159
vt -0.919159 -0.919159
vt -0.919159 1.919159
vt 1.919159 1.919159
vt -0.919159 -0.919159
vt 1.919159 -0.919159
s 0
usemtl None_ULTRA_64_DEMO#1E82F06D#2#1#AE68E014_ciByRGBA.png.011
f 94/164/40 96/170/40 95/167/40 93/161/40
f 96/171/41 100/180/41 99/178/41 95/168/41
f 100/179/42 98/175/42 97/173/42 99/177/42
f 98/176/43 94/165/43 93/162/43 97/174/43
f 93/163/44 95/169/44 99/178/44 97/174/44
f 98/176/45 100/180/45 96/172/45 94/166/45
o Cube.008_Cube.012
v -3.563609 0.041824 -24.862881
v -3.563609 6.452201 -24.862881
v -3.563609 0.041824 -31.043074
v -3.563609 6.452200 -31.043074
v -3.307098 0.041824 -24.862881
v -3.307098 6.452201 -24.862881
v -3.307098 0.041824 -31.043074
v -3.307098 6.452200 -31.043074
vn -1.0000 -0.0000 -0.0000
vn -0.0000 -0.0000 -1.0000
vn 1.0000 -0.0000 -0.0000
vn -0.0000 -0.0000 1.0000
vn -0.0000 -1.0000 -0.0000
vn -0.0000 1.0000 -0.0000
vt -0.919159 1.919159
vt 1.919159 1.919159
vt -0.919159 -0.919159
vt -0.919159 -0.919159
vt 1.919159 -0.919159
vt -0.919159 1.919159
vt 1.919159 1.919159
vt -0.919159 1.919159
vt 1.919159 -0.919159
vt 1.919159 -0.919159
vt -0.919159 -0.919159
vt 1.919159 1.919159
vt 1.919159 1.919159
vt -0.919159 1.919159
vt 1.919159 -0.919159
vt -0.919159 -0.919159
vt -0.919159 1.919159
vt 1.919159 1.919159
vt -0.919159 -0.919159
vt 1.919159 -0.919159
s 0
usemtl None_ULTRA_64_DEMO#1E82F06D#2#1#AE68E014_ciByRGBA.png.010
f 102/184/46 104/190/46 103/187/46 101/181/46
f 104/191/47 108/200/47 107/198/47 103/188/47
f 108/199/48 106/195/48 105/193/48 107/197/48
f 106/196/49 102/185/49 101/182/49 105/194/49
f 101/183/50 103/189/50 107/198/50 105/194/50
f 106/196/51 108/200/51 104/192/51 102/186/51
o Cube.007_Cube.011
v -24.450277 0.041824 -24.523109
v -24.450277 6.452201 -24.523109
v -24.450277 0.041824 -25.061295
v -24.450277 6.452201 -25.061295
v -3.332939 0.041824 -24.523109
v -3.332939 6.452201 -24.523109
v -3.332939 0.041824 -25.061295
v -3.332939 6.452201 -25.061295
vn -1.0000 -0.0000 -0.0000
vn -0.0000 -0.0000 -1.0000
vn 1.0000 -0.0000 -0.0000
vn -0.0000 -0.0000 1.0000
vn -0.0000 -1.0000 -0.0000
vn -0.0000 1.0000 -0.0000
vt -3.357345 1.964667
vt 6.837660 1.964667
vt -3.357345 -0.964667
vt -3.357345 -0.964667
vt 6.837660 -0.964667
vt -3.357345 1.964667
vt 6.837660 1.964667
vt -3.357345 1.964667
vt 6.837660 -0.964667
vt 6.837660 -0.964667
vt -3.357345 -0.964667
vt 6.837660 1.964667
vt 6.837660 1.964667
vt -3.357345 1.964667
vt 6.837660 -0.964667
vt -3.357345 -0.964667
vt -3.357345 1.964667
vt 6.837660 1.964667
vt -3.357345 -0.964667
vt 6.837660 -0.964667
s 0
usemtl None_ULTRA_64_DEMO#1E82F06D#2#1#AE68E014_ciByRGBA.png.009
f 110/204/52 112/210/52 111/207/52 109/201/52
f 112/211/53 116/220/53 115/218/53 111/208/53
f 116/219/54 114/215/54 113/213/54 115/217/54
f 114/216/55 110/205/55 109/202/55 113/214/55
f 109/203/56 111/209/56 115/218/56 113/214/56
f 114/216/57 116/220/57 112/212/57 110/206/57
o Cube.006_Cube.010
v 2.958324 0.041824 -24.397251
v 2.958324 6.452201 -24.397251
v 2.958324 0.041824 -24.935436
v 2.958324 6.452201 -24.935436
v 23.700241 0.041824 -24.397251
v 23.700241 6.452201 -24.397251
v 23.700241 0.041824 -24.935436
v 23.700241 6.452201 -24.935436
vn -1.0000 -0.0000 -0.0000
vn -0.0000 -0.0000 -1.0000
vn 1.0000 -0.0000 -0.0000
vn -0.0000 -0.0000 1.0000
vn -0.0000 -1.0000 -0.0000
vn -0.0000 1.0000 -0.0000
vt -3.357345 1.964667
vt 6.837660 1.964667
vt -3.357345 -0.964667
vt -3.357345 -0.964667
vt 6.837660 -0.964667
vt -3.357345 1.964667
vt 6.837660 1.964667
vt -3.357345 1.964667
vt 6.837660 -0.964667
vt 6.837660 -0.964667
vt -3.357345 -0.964667
vt 6.837660 1.964667
vt 6.837660 1.964667
vt -3.357345 1.964667
vt 6.837660 -0.964667
vt -3.357345 -0.964667
vt -3.357345 1.964667
vt 6.837660 1.964667
vt -3.357345 -0.964667
vt 6.837660 -0.964667
s 0
usemtl None_ULTRA_64_DEMO#1E82F06D#2#1#AE68E014_ciByRGBA.png.008
f 118/224/58 120/230/58 119/227/58 117/221/58
f 120/231/59 124/240/59 123/238/59 119/228/59
f 124/239/60 122/235/60 121/233/60 123/237/60
f 122/236/61 118/225/61 117/222/61 121/234/61
f 117/223/62 119/229/62 123/238/62 121/234/62
f 122/236/63 124/240/63 120/232/63 118/226/63
o Cube.005_Cube.009
v -23.962570 0.041830 12.152426
v -23.962570 6.452207 12.152424
v -23.962570 0.041830 11.614241
v -23.962570 6.452207 11.614239
v -3.340452 0.041830 12.152426
v -3.340452 6.452207 12.152424
v -3.340452 0.041830 11.614241
v -3.340452 6.452207 11.614239
vn -1.0000 -0.0000 -0.0000
vn -0.0000 -0.0000 -1.0000
vn 1.0000 -0.0000 -0.0000
vn -0.0000 -0.0000 1.0000
vn -0.0000 -1.0000 -0.0000
vn -0.0000 1.0000 -0.0000
vt -3.357345 1.964667
vt 6.837660 1.964667
vt -3.357345 -0.964667
vt -3.357345 -0.964667
vt 6.837660 -0.964667
vt -3.357345 1.964667
vt 6.837660 1.964667
vt -3.357345 1.964667
vt 6.837660 -0.964667
vt 6.837660 -0.964667
vt -3.357345 -0.964667
vt 6.837660 1.964667
vt 6.837660 1.964667
vt -3.357345 1.964667
vt 6.837660 -0.964667
vt -3.357345 -0.964667
vt -3.357345 1.964667
vt 6.837660 1.964667
vt -3.357345 -0.964667
vt 6.837660 -0.964667
s 0
usemtl None_ULTRA_64_DEMO#1E82F06D#2#1#AE68E014_ciByRGBA.png.007
f 126/244/64 128/250/64 127/247/64 125/241/64
f 128/251/65 132/260/65 131/258/65 127/248/65
f 132/259/66 130/255/66 129/253/66 131/257/66
f 130/256/67 126/245/67 125/242/67 129/254/67
f 125/243/68 127/249/68 131/258/68 129/254/68
f 130/256/69 132/260/69 128/252/69 126/246/69
o Cube.004_Cube.008
v 3.007447 0.041830 12.152426
v 3.007447 6.452207 12.152424
v 3.007447 0.041830 11.614241
v 3.007447 6.452207 11.614239
v 23.700241 0.041830 12.152426
v 23.700241 6.452207 12.152424
v 23.700241 0.041830 11.614241
v 23.700241 6.452207 11.614239
vn -1.0000 -0.0000 -0.0000
vn -0.0000 -0.0000 -1.0000
vn 1.0000 -0.0000 -0.0000
vn -0.0000 -0.0000 1.0000
vn -0.0000 -1.0000 -0.0000
vn -0.0000 1.0000 -0.0000
vt -3.357345 1.964667
vt 6.837660 1.964667
vt -3.357345 -0.964667
vt -3.357345 -0.964667
vt 6.837660 -0.964667
vt -3.357345 1.964667
vt 6.837660 1.964667
vt -3.357345 1.964667
vt 6.837660 -0.964667
vt 6.837660 -0.964667
vt -3.357345 -0.964667
vt 6.837660 1.964667
vt 6.837660 1.964667
vt -3.357345 1.964667
vt 6.837660 -0.964667
vt -3.357345 -0.964667
vt -3.357345 1.964667
vt 6.837660 1.964667
vt -3.357345 -0.964667
vt 6.837660 -0.964667
s 0
usemtl None_ULTRA_64_DEMO#1E82F06D#2#1#AE68E014_ciByRGBA.png.006
f 134/264/70 136/270/70 135/267/70 133/261/70
f 136/271/71 140/280/71 139/278/71 135/268/71
f 140/279/72 138/275/72 137/273/72 139/277/72
f 138/276/73 134/265/73 133/262/73 137/274/73
f 133/263/74 135/269/74 139/278/74 137/274/74
f 138/276/75 140/280/75 136/272/75 134/266/75
o Cube.003_Cube.007
v 23.498493 0.041830 12.152426
v 23.498493 6.452207 12.152424
v 23.498493 0.041824 -25.126722
v 23.498493 6.452201 -25.126722
v 23.755005 0.041830 12.152426
v 23.755005 6.452207 12.152424
v 23.755005 0.041824 -25.126722
v 23.755005 6.452201 -25.126722
vn -1.0000 -0.0000 -0.0000
vn -0.0000 -0.0000 -1.0000
vn 1.0000 -0.0000 -0.0000
vn -0.0000 -0.0000 1.0000
vn -0.0000 -1.0000 -0.0000
vn -0.0000 1.0000 -0.0000
vt -3.357345 1.964667
vt 6.837660 1.964667
vt -3.357345 -0.964667
vt -3.357345 -0.964667
vt 6.837660 -0.964667
vt -3.357345 1.964667
vt 6.837660 1.964667
vt -3.357345 1.964667
vt 6.837660 -0.964667
vt 6.837660 -0.964667
vt -3.357345 -0.964667
vt 6.837660 1.964667
vt 6.837660 1.964667
vt -3.357345 1.964667
vt 6.837660 -0.964667
vt -3.357345 -0.964667
vt -3.357345 1.964667
vt 6.837660 1.964667
vt -3.357345 -0.964667
vt 6.837660 -0.964667
s 0
usemtl None_ULTRA_64_DEMO#1E82F06D#2#1#AE68E014_ciByRGBA.png.005
f 142/284/76 144/290/76 143/287/76 141/281/76
f 144/291/77 148/300/77 147/298/77 143/288/77
f 148/299/78 146/295/78 145/293/78 147/297/78
f 146/296/79 142/285/79 141/282/79 145/294/79
f 141/283/80 143/289/80 147/298/80 145/294/80
f 146/296/81 148/300/81 144/292/81 142/286/81
o Cube.002_Cube.004
v -24.486965 0.041830 12.152426
v -24.486965 6.452207 12.152424
v -24.486965 0.041824 -25.126722
v -24.486965 6.452201 -25.126722
v -24.230453 0.041830 12.152426
v -24.230453 6.452207 12.152424
v -24.230453 0.041824 -25.126722
v -24.230453 6.452201 -25.126722
vn -1.0000 -0.0000 -0.0000
vn -0.0000 -0.0000 -1.0000
vn 1.0000 -0.0000 -0.0000
vn -0.0000 -0.0000 1.0000
vn -0.0000 -1.0000 -0.0000
vn -0.0000 1.0000 -0.0000
vt -3.357345 1.964667
vt 6.837660 1.964667
vt -3.357345 -0.964667
vt -3.357345 -0.964667
vt 6.837660 -0.964667
vt -3.357345 1.964667
vt 6.837660 1.964667
vt -3.357345 1.964667
vt 6.837660 -0.964667
vt 6.837660 -0.964667
vt -3.357345 -0.964667
vt 6.837660 1.964667
vt 6.837660 1.964667
vt -3.357345 1.964667
vt 6.837660 -0.964667
vt -3.357345 -0.964667
vt -3.357345 1.964667
vt 6.837660 1.964667
vt -3.357345 -0.964667
vt 6.837660 -0.964667
s 0
usemtl None_ULTRA_64_DEMO#1E82F06D#2#1#AE68E014_ciByRGBA.png.002
f 150/304/82 152/310/82 151/307/82 149/301/82
f 152/311/83 156/320/83 155/318/83 151/308/83
f 156/319/84 154/315/84 153/313/84 155/317/84
f 154/316/85 150/305/85 149/302/85 153/314/85
f 149/303/86 151/309/86 155/318/86 153/314/86
f 154/316/87 156/320/87 152/312/87 150/306/87
o Cube.001_Cube.003
v 2.938559 0.041830 18.278374
v 2.938559 6.452209 18.278374
v 2.938559 0.041830 12.098182
v 2.938559 6.452207 12.098180
v 3.195071 0.041830 18.278374
v 3.195071 6.452209 18.278374
v 3.195071 0.041830 12.098182
v 3.195071 6.452207 12.098180
vn -1.0000 -0.0000 -0.0000
vn -0.0000 -0.0000 -1.0000
vn 1.0000 -0.0000 -0.0000
vn -0.0000 -0.0000 1.0000
vn -0.0000 -1.0000 -0.0000
vn -0.0000 1.0000 -0.0000
vt -0.919159 1.919159
vt 1.919159 1.919159
vt -0.919159 -0.919159
vt -0.919159 -0.919159
vt 1.919159 -0.919159
vt -0.919159 1.919159
vt 1.919159 1.919159
vt -0.919159 1.919159
vt 1.919159 -0.919159
vt 1.919159 -0.919159
vt -0.919159 -0.919159
vt 1.919159 1.919159
vt 1.919159 1.919159
vt -0.919159 1.919159
vt 1.919159 -0.919159
vt -0.919159 -0.919159
vt -0.919159 1.919159
vt 1.919159 1.919159
vt -0.919159 -0.919159
vt 1.919159 -0.919159
s 0
usemtl None_ULTRA_64_DEMO#1E82F06D#2#1#AE68E014_ciByRGBA.png.001
f 158/324/88 160/330/88 159/327/88 157/321/88
f 160/331/89 164/340/89 163/338/89 159/328/89
f 164/339/90 162/335/90 161/333/90 163/337/90
f 162/336/91 158/325/91 157/322/91 161/334/91
f 157/323/92 159/329/92 163/338/92 161/334/92
f 162/336/93 164/340/93 160/332/93 158/326/93
o Cube.001_Cube.001
v -2.452472 4.698315 14.930367
v -2.452472 4.701966 14.930367
v -2.452472 4.698315 14.930359
v -2.452472 4.701966 14.930359
v 0.637785 3.977083 14.932465
v 0.637785 5.423198 14.932465
v 0.637785 3.977083 14.928262
v 0.637785 5.423198 14.928262
v 0.601675 -0.121128 14.997375
v 0.601675 5.496822 14.997375
v 0.601675 -0.121128 14.818159
v 0.601675 5.496822 14.818158
v 0.780892 -0.121128 14.997375
v 0.780892 5.496822 14.997375
v 0.780892 -0.121128 14.818159
v 0.780892 5.496822 14.818158
vn -1.0000 -0.0000 -0.0000
vn -0.0007 -0.0000 -1.0000
vn 1.0000 -0.0000 -0.0000
vn -0.0007 -0.0000 1.0000
vn -0.2272 -0.9738 -0.0000
vn -0.2274 0.9738 -0.0003
vn -0.0000 -0.0000 -1.0000
vn -0.0000 -0.0000 1.0000
vn -0.0000 -1.0000 -0.0000
vn -0.0000 1.0000 -0.0000
vt 0.999651 -0.001395
vt -0.000348 0.001396
vt 1.000348 0.998604
vt 1.000348 0.998604
vt 0.000349 1.001395
vt 0.999651 -0.001395
vt -0.000348 0.001396
vt 0.999651 -0.001395
vt 0.000349 1.001395
vt 0.000349 1.001395
vt 1.000348 0.998604
vt -0.000348 0.001396
vt -0.000348 0.001396
vt 0.999651 -0.001395
vt 0.000349 1.001395
vt 1.000348 0.998604
vt 0.999651 -0.001395
vt -0.000348 0.001396
vt 1.000348 0.998604
vt 0.000349 1.001395
vt 0.000000 2.771764
vt 1.000000 2.771764
vt 0.000000 0.000000
vt 0.000000 0.000000
vt 1.000000 0.000000
vt 0.000000 2.771764
vt 1.000000 2.771764
vt 0.000000 2.771764
vt 1.000000 0.000000
vt 1.000000 0.000000
vt 0.000000 0.000000
vt 1.000000 2.771764
vt 1.000000 2.771764
vt 0.000000 2.771764
vt 1.000000 0.000000
vt 0.000000 0.000000
vt 0.000000 2.771764
vt 1.000000 2.771764
vt 0.000000 0.000000
vt 1.000000 0.000000
s 0
usemtl None.001
f 166/344/94 168/350/94 167/347/94 165/341/94
f 168/351/95 172/360/95 171/358/95 167/348/95
f 172/359/96 170/355/96 169/353/96 171/357/96
f 170/356/97 166/345/97 165/342/97 169/354/97
f 165/343/98 167/349/98 171/358/98 169/354/98
f 170/356/99 172/360/99 168/352/99 166/346/99
usemtl None_pole.png
f 174/364/94 176/370/94 175/367/94 173/361/94
f 176/371/100 180/380/100 179/378/100 175/368/100
f 180/379/96 178/375/96 177/373/96 179/377/96
f 178/376/101 174/365/101 173/362/101 177/374/101
f 173/363/102 175/369/102 179/378/102 177/374/102
f 178/376/103 180/380/103 176/372/103 174/366/103
