# Blender 4.0.0
# www.blender.org
mtllib dokan.mtl
o RCP_dokan
v 0.000000 -0.000000 1.562500
v 1.351562 -0.000000 0.781250
v 0.000000 2.085938 1.562500
v 1.351562 -0.000000 0.781250
v 1.351562 0.000000 -0.781250
v 1.351562 2.085938 0.781250
v 1.351562 0.000000 -0.781250
v 0.000000 0.000000 -1.562500
v 1.351562 2.085938 -0.781250
v 0.000000 0.000000 -1.562500
v -1.351562 0.000000 -0.781250
v 0.000000 2.085938 -1.562500
v -1.351562 0.000000 -0.781250
v -1.351562 -0.000000 0.781250
v -1.351562 2.085938 -0.781250
v -1.351562 -0.000000 0.781250
v 0.000000 -0.000000 1.562500
v -1.351562 2.085938 0.781250
v 0.000000 2.085938 1.851563
v 1.601562 2.085938 0.929688
v 0.000000 3.125000 1.851563
v 1.601562 2.085938 0.929688
v 1.601562 2.085938 -0.929687
v 1.601562 3.125000 0.929688
v 1.601562 2.085938 -0.929687
v 0.000000 2.085938 -1.851562
v 1.601562 3.125000 -0.929687
v 0.000000 2.085938 -1.851562
v -1.601562 2.085938 -0.929687
v 0.000000 3.125000 -1.851562
v -1.601562 3.125000 -0.929687
v -1.601562 2.085938 -0.929687
v -1.601562 3.125000 0.929688
v -1.601562 3.125000 0.929688
v -1.601562 2.085938 0.929688
v 0.000000 3.125000 1.851563
v -1.351562 -0.000000 0.781250
v 0.000000 -0.000000 1.156250
v 0.000000 -0.000000 1.562500
v 0.000000 -0.000000 1.562500
v 0.000000 -0.000000 1.156250
v 1.351562 -0.000000 0.781250
v 1.351562 -0.000000 0.781250
v 1.000000 0.000000 -0.578125
v 1.351562 0.000000 -0.781250
v 1.351562 0.000000 -0.781250
v 1.000000 0.000000 -0.578125
v 0.000000 0.000000 -1.562500
v 0.000000 0.000000 -1.562500
v 0.000000 0.000000 -1.156250
v -1.351562 0.000000 -0.781250
v -1.351562 0.000000 -0.781250
v -1.000000 -0.000000 0.578125
v -1.351562 -0.000000 0.781250
v -1.601562 2.085938 0.929688
v -1.601562 2.085938 -0.929687
v -1.351562 2.085938 -0.781250
v -1.601562 2.085938 -0.929687
v 0.000000 2.085938 -1.851562
v -1.351562 2.085938 -0.781250
v 0.000000 2.085938 -1.851562
v 1.601562 2.085938 -0.929687
v 0.000000 2.085938 -1.562500
v 1.601562 2.085938 -0.929687
v 1.601562 2.085938 0.929688
v 1.351562 2.085938 -0.781250
v 1.601562 2.085938 0.929688
v 0.000000 2.085938 1.851563
v 0.000000 2.085938 1.562500
v 0.000000 2.085938 1.851563
v -1.601562 2.085938 0.929688
v 0.000000 2.085938 1.562500
v 0.000000 3.125000 1.156250
v 0.000000 3.125000 1.851563
v 1.601562 3.125000 0.929688
v 1.000000 3.125000 0.578125
v 1.601562 3.125000 0.929688
v 1.601562 3.125000 -0.929687
v 0.000000 3.125000 -1.156250
v 1.601562 3.125000 -0.929687
v 0.000000 3.125000 -1.851562
v 0.000000 3.125000 -1.156250
v 0.000000 3.125000 -1.851562
v -1.601562 3.125000 -0.929687
v -1.000000 3.125000 0.578125
v -1.601562 3.125000 -0.929687
v -1.601562 3.125000 0.929688
v -1.601562 3.125000 0.929688
v 0.000000 3.125000 1.851563
v 0.000000 3.125000 1.156250
v 0.000000 3.125000 1.156250
v 1.000000 3.125000 0.578125
v 0.000000 -0.000000 1.156250
v 1.000000 3.125000 0.578125
v 1.000000 0.000000 -0.578125
v 1.000000 -0.000000 0.578125
v 1.000000 3.125000 -0.578125
v 0.000000 3.125000 -1.156250
v 1.000000 0.000000 -0.578125
v 0.000000 3.125000 -1.156250
v -1.000000 3.125000 -0.578125
v 0.000000 0.000000 -1.156250
v -1.000000 3.125000 -0.578125
v -1.000000 3.125000 0.578125
v -1.000000 -0.000000 0.578125
v -1.000000 3.125000 0.578125
v 0.000000 3.125000 1.156250
v -1.000000 -0.000000 0.578125
v 0.000000 3.125000 1.156250
v 0.000000 -0.000000 1.156250
v -1.000000 -0.000000 0.578125
v -1.000000 -0.000000 0.578125
v -1.000000 0.000000 -0.578125
v -1.000000 3.125000 -0.578125
v -1.000000 3.125000 -0.578125
v -1.000000 0.000000 -0.578125
v 0.000000 0.000000 -1.156250
v 0.000000 3.125000 -1.156250
v 0.000000 0.000000 -1.156250
v 1.000000 0.000000 -0.578125
v 1.000000 3.125000 0.578125
v 1.000000 3.125000 -0.578125
v 1.000000 0.000000 -0.578125
v 1.000000 3.125000 0.578125
v 1.000000 -0.000000 0.578125
v 0.000000 -0.000000 1.156250
v 0.000000 3.125000 1.156250
v -1.000000 3.125000 0.578125
v -1.601562 3.125000 0.929688
v -1.000000 3.125000 0.578125
v -1.000000 3.125000 -0.578125
v -1.601562 3.125000 -0.929687
v -1.601562 3.125000 -0.929687
v -1.000000 3.125000 -0.578125
v 0.000000 3.125000 -1.156250
v 0.000000 3.125000 -1.156250
v 1.000000 3.125000 -0.578125
v 1.601562 3.125000 -0.929687
v 1.601562 3.125000 -0.929687
v 1.000000 3.125000 -0.578125
v 1.000000 3.125000 0.578125
v 1.601562 3.125000 0.929688
v 1.000000 3.125000 0.578125
v 0.000000 3.125000 1.156250
v -1.601562 2.085938 0.929688
v -1.351562 2.085938 0.781250
v 0.000000 2.085938 1.562500
v 0.000000 2.085938 1.562500
v 1.351562 2.085938 0.781250
v 1.601562 2.085938 0.929688
v 1.601562 2.085938 0.929688
v 1.351562 2.085938 0.781250
v 1.351562 2.085938 -0.781250
v 1.601562 2.085938 -0.929687
v 1.351562 2.085938 -0.781250
v 0.000000 2.085938 -1.562500
v 0.000000 2.085938 -1.851562
v 0.000000 2.085938 -1.562500
v -1.351562 2.085938 -0.781250
v -1.351562 2.085938 -0.781250
v -1.351562 2.085938 0.781250
v -1.601562 2.085938 0.929688
v -1.351562 0.000000 -0.781250
v -1.000000 0.000000 -0.578125
v -1.000000 -0.000000 0.578125
v 0.000000 0.000000 -1.156250
v -1.000000 0.000000 -0.578125
v -1.351562 0.000000 -0.781250
v 1.000000 0.000000 -0.578125
v 0.000000 0.000000 -1.156250
v 0.000000 0.000000 -1.562500
v 1.351562 -0.000000 0.781250
v 1.000000 -0.000000 0.578125
v 1.000000 0.000000 -0.578125
v 0.000000 -0.000000 1.156250
v 1.000000 -0.000000 0.578125
v 1.351562 -0.000000 0.781250
v -1.351562 -0.000000 0.781250
v -1.000000 -0.000000 0.578125
v 0.000000 -0.000000 1.156250
v -1.601562 2.085938 0.929688
v 0.000000 2.085938 1.851563
v 0.000000 3.125000 1.851563
v -1.601562 2.085938 -0.929687
v -1.601562 2.085938 0.929688
v -1.601562 3.125000 0.929688
v -1.601562 2.085938 -0.929687
v -1.601562 3.125000 -0.929687
v 0.000000 3.125000 -1.851562
v 0.000000 2.085938 -1.851562
v 0.000000 3.125000 -1.851562
v 1.601562 3.125000 -0.929687
v 1.601562 2.085938 -0.929687
v 1.601562 3.125000 -0.929687
v 1.601562 3.125000 0.929688
v 1.601562 2.085938 0.929688
v 1.601562 3.125000 0.929688
v 0.000000 3.125000 1.851563
v 0.000000 -0.000000 1.562500
v 0.000000 2.085938 1.562500
v -1.351562 2.085938 0.781250
v -1.351562 -0.000000 0.781250
v -1.351562 2.085938 0.781250
v -1.351562 2.085938 -0.781250
v -1.351562 0.000000 -0.781250
v -1.351562 2.085938 -0.781250
v 0.000000 2.085938 -1.562500
v 0.000000 0.000000 -1.562500
v 0.000000 2.085938 -1.562500
v 1.351562 2.085938 -0.781250
v 1.351562 0.000000 -0.781250
v 1.351562 2.085938 -0.781250
v 1.351562 2.085938 0.781250
v 1.351562 -0.000000 0.781250
v 1.351562 2.085938 0.781250
v 0.000000 2.085938 1.562500
vn 0.5004 -0.0000 0.8658
vn 1.0000 -0.0000 -0.0000
vn 0.5004 -0.0000 -0.8658
vn -0.5004 -0.0000 -0.8658
vn -1.0000 -0.0000 -0.0000
vn -0.5004 -0.0000 0.8658
vn 0.4989 -0.0000 0.8667
vn 0.4989 -0.0000 -0.8667
vn -0.4989 -0.0000 -0.8667
vn -0.4989 -0.0000 0.8667
vn -0.0000 -1.0000 -0.0000
vn -0.0000 1.0000 -0.0000
vn -0.5005 -0.0000 -0.8657
vn -0.5005 -0.0000 0.8657
vn 0.5005 -0.0000 0.8657
vn 0.5005 -0.0000 -0.8657
vt 0.000000 1.000000
s 0
usemtl Material.002
f 1/1/1 2/1/1 3/1/1
f 4/1/2 5/1/2 6/1/2
f 7/1/3 8/1/3 9/1/3
f 10/1/4 11/1/4 12/1/4
f 13/1/5 14/1/5 15/1/5
f 16/1/6 17/1/6 18/1/6
f 19/1/7 20/1/7 21/1/7
f 22/1/2 23/1/2 24/1/2
f 25/1/8 26/1/8 27/1/8
f 28/1/9 29/1/9 30/1/9
f 31/1/5 32/1/5 33/1/5
f 34/1/10 35/1/10 36/1/10
f 37/1/11 38/1/11 39/1/11
f 40/1/11 41/1/11 42/1/11
f 43/1/11 44/1/11 45/1/11
f 46/1/11 47/1/11 48/1/11
f 49/1/11 50/1/11 51/1/11
f 52/1/11 53/1/11 54/1/11
f 55/1/11 56/1/11 57/1/11
f 58/1/11 59/1/11 60/1/11
f 61/1/11 62/1/11 63/1/11
f 64/1/11 65/1/11 66/1/11
f 67/1/11 68/1/11 69/1/11
f 70/1/11 71/1/11 72/1/11
f 73/1/12 74/1/12 75/1/12
f 76/1/12 77/1/12 78/1/12
f 79/1/12 80/1/12 81/1/12
f 82/1/12 83/1/12 84/1/12
f 85/1/12 86/1/12 87/1/12
f 88/1/12 89/1/12 90/1/12
f 91/1/13 92/1/13 93/1/13
f 94/1/5 95/1/5 96/1/5
f 97/1/14 98/1/14 99/1/14
f 100/1/15 101/1/15 102/1/15
f 103/1/2 104/1/2 105/1/2
f 106/1/16 107/1/16 108/1/16
f 109/1/16 110/1/16 111/1/16
f 112/1/2 113/1/2 114/1/2
f 115/1/15 116/1/15 117/1/15
f 118/1/14 119/1/14 120/1/14
f 121/1/5 122/1/5 123/1/5
f 124/1/13 125/1/13 126/1/13
f 127/1/12 128/1/12 129/1/12
f 130/1/12 131/1/12 132/1/12
f 133/1/12 134/1/12 135/1/12
f 136/1/12 137/1/12 138/1/12
f 139/1/12 140/1/12 141/1/12
f 142/1/12 143/1/12 144/1/12
f 145/1/11 146/1/11 147/1/11
f 148/1/11 149/1/11 150/1/11
f 151/1/11 152/1/11 153/1/11
f 154/1/11 155/1/11 156/1/11
f 157/1/11 158/1/11 159/1/11
f 160/1/11 161/1/11 162/1/11
f 163/1/11 164/1/11 165/1/11
f 166/1/11 167/1/11 168/1/11
f 169/1/11 170/1/11 171/1/11
f 172/1/11 173/1/11 174/1/11
f 175/1/11 176/1/11 177/1/11
f 178/1/11 179/1/11 180/1/11
f 181/1/10 182/1/10 183/1/10
f 184/1/5 185/1/5 186/1/5
f 187/1/9 188/1/9 189/1/9
f 190/1/8 191/1/8 192/1/8
f 193/1/2 194/1/2 195/1/2
f 196/1/7 197/1/7 198/1/7
f 199/1/6 200/1/6 201/1/6
f 202/1/5 203/1/5 204/1/5
f 205/1/4 206/1/4 207/1/4
f 208/1/3 209/1/3 210/1/3
f 211/1/2 212/1/2 213/1/2
f 214/1/1 215/1/1 216/1/1
