# Blender v2.76 (sub 0) OBJ File: 'flagpole.blend'
# www.blender.org
mtllib flagpole.mtl
o Cube.001_Cube.003
v -1.329461 2.035581 0.029483
v -1.329461 2.037119 0.029483
v -1.329461 2.035581 0.029479
v -1.329461 2.037119 0.029479
v -0.027916 1.731815 0.030366
v -0.027916 2.340885 0.030366
v -0.027916 1.731815 0.028596
v -0.027916 2.340885 0.028596
v -0.043125 0.005743 0.057705
v -0.043125 2.371894 0.057705
v -0.043125 0.005743 -0.017777
v -0.043125 2.371894 -0.017777
v 0.032357 0.005743 0.057705
v 0.032357 2.371894 0.057705
v 0.032357 0.005743 -0.017777
v 0.032357 2.371894 -0.017777
vt 1.000348 0.998604
vt 0.000349 1.001395
vt -0.000348 0.001396
vt 0.999651 -0.001395
vt 0.000000 0.000000
vt 1.000000 0.000000
vt 1.000000 2.771764
vt 0.000000 2.771764
vn -1.000000 0.000000 0.000000
vn -0.000700 0.000000 -1.000000
vn 1.000000 -0.000000 0.000000
vn -0.000700 0.000000 1.000000
vn -0.227300 -0.973800 -0.000100
vn -0.227300 0.973800 -0.000100
vn 0.000000 -0.000000 -1.000000
vn -0.000000 0.000000 1.000000
vn 0.000000 -1.000000 -0.000000
vn 0.000000 1.000000 0.000000
usemtl None
s off
f 2/1/1 4/2/1 3/3/1 1/4/1
f 4/1/2 8/2/2 7/3/2 3/4/2
f 8/1/3 6/2/3 5/3/3 7/4/3
f 6/1/4 2/2/4 1/3/4 5/4/4
f 1/1/5 3/2/5 7/3/5 5/4/5
f 6/1/6 8/2/6 4/3/6 2/4/6
usemtl None_pole.png
f 10/5/1 12/6/1 11/7/1 9/8/1
f 12/5/7 16/6/7 15/7/7 11/8/7
f 16/5/3 14/6/3 13/7/3 15/8/3
f 14/5/8 10/6/8 9/7/8 13/8/8
f 9/5/9 11/6/9 15/7/9 13/8/9
f 14/5/10 16/6/10 12/7/10 10/8/10
