# Blender v2.76 (sub 0) OBJ File: 'axe.blend'
# www.blender.org
mtllib axe.mtl
o Cube
v 0.066873 0.005898 -0.066873
v 0.066873 0.005898 0.066873
v -0.066873 0.005898 0.066873
v -0.066873 0.005898 -0.066873
v 0.066873 1.738227 -0.066873
v 0.066873 1.738227 0.066873
v -0.066873 1.738227 0.066873
v -0.066873 1.738227 -0.066873
vt 0.382665 0.382665
vt 0.617335 0.382665
vt 0.617335 0.617335
vt 0.382665 0.617335
vn 0.000000 -1.000000 0.000000
vn 0.000000 1.000000 -0.000000
vn 1.000000 0.000000 0.000000
vn -0.000000 -0.000000 1.000000
vn -1.000000 -0.000000 -0.000000
vn 0.000000 0.000000 -1.000000
usemtl Material
s off
f 1/1/1 2/2/1 3/3/1 4/4/1
f 5/1/2 8/2/2 7/3/2 6/4/2
f 1/1/3 5/2/3 6/3/3 2/4/3
f 2/1/4 6/2/4 7/3/4 3/4/4
f 3/1/5 7/2/5 8/3/5 4/4/5
f 5/1/6 1/2/6 4/3/6 8/4/6
o Cube.001
v 0.066873 1.125002 0.049772
v 0.036449 1.265924 0.749419
v -0.036449 1.265924 0.749419
v -0.066873 1.125002 0.049772
v 0.066873 1.744508 0.049772
v 0.036449 1.603586 0.749419
v -0.036449 1.603586 0.749419
v -0.066873 1.744508 0.049772
v 0.066873 1.125002 0.422587
v -0.000000 1.125002 0.049772
v 0.066873 1.434755 0.049772
v -0.000000 1.265924 0.749419
v 0.036449 1.434755 0.749419
v -0.066873 1.125002 0.422587
v -0.036449 1.434755 0.749419
v -0.066873 1.434755 0.049772
v 0.066873 1.744508 0.422587
v -0.000000 1.744508 0.049772
v -0.000000 1.603586 0.749419
v -0.066873 1.744508 0.422587
v -0.000000 1.434755 0.049772
v -0.066873 1.434755 0.422587
v -0.000000 1.434755 0.749419
v 0.066873 1.434755 0.422587
v -0.000000 1.744508 0.422587
v -0.000000 1.125002 0.422587
vt 0.500000 0.500977
vt 0.499175 0.999999
vt -0.000824 0.999174
vt 0.000001 0.501128
vt 0.500825 0.001954
vt 0.000826 0.003082
vt 1.000824 0.000826
vt 0.999999 0.500825
vt 0.999174 1.000824
vn -0.000000 -0.918300 0.395900
vn -0.000000 0.918300 0.395900
vn 0.995700 0.000000 0.092700
vn -0.000000 -0.000000 1.000000
vn -1.000000 -0.000000 -0.000000
vn -0.000000 0.000000 -1.000000
vn -0.995700 -0.000000 0.092700
vn 1.000000 0.000000 0.000000
vn 0.000000 1.000000 0.000000
vn 0.000000 -1.000000 0.000000
usemtl Material.001
s off
f 34/5/7 20/6/7 11/7/7 22/8/7
f 33/5/8 28/6/8 15/7/8 27/8/8
f 32/5/9 25/6/9 14/7/9 21/8/9
f 31/5/10 27/6/10 15/7/10 23/8/10
f 30/5/11 28/6/11 16/7/11 24/8/11
f 29/5/12 18/6/12 12/7/12 24/8/12
f 26/9/12 29/5/12 24/8/12 16/10/12
f 13/11/12 19/12/12 29/5/12 26/9/12
f 19/12/12 9/13/12 18/6/12 29/5/12
f 22/9/11 30/5/11 24/8/11 12/10/11
f 11/11/13 23/12/13 30/5/13 22/9/13
f 23/12/13 15/13/13 28/6/13 30/5/13
f 20/9/10 31/5/10 23/8/10 11/10/10
f 10/11/10 21/12/10 31/5/10 20/9/10
f 21/12/10 14/13/10 27/6/10 31/5/10
f 17/9/9 32/5/9 21/8/9 10/10/9
f 9/11/14 19/12/14 32/5/14 17/9/14
f 19/12/14 13/13/14 25/6/14 32/5/14
f 25/9/8 33/5/8 27/8/8 14/10/8
f 13/11/15 26/12/15 33/5/15 25/9/15
f 26/12/15 16/13/15 28/6/15 33/5/15
f 18/9/16 34/5/16 22/8/16 12/10/16
f 9/11/16 17/12/16 34/5/16 18/9/16
f 17/12/7 10/13/7 20/6/7 34/5/7
o Cube.002
v 0.042197 1.250790 -0.759736
v 0.066873 1.126374 -0.054375
v -0.066873 1.126374 -0.054375
v -0.040013 1.250790 -0.759736
v 0.042197 1.631581 -0.759736
v 0.066873 1.745880 -0.054375
v -0.066873 1.745880 -0.054375
v -0.040013 1.631581 -0.759736
v 0.066873 1.126374 -0.404199
v 0.001092 1.250790 -0.759736
v 0.042197 1.441186 -0.759736
v -0.000000 1.126374 -0.054375
v 0.066873 1.436127 -0.054375
v -0.076703 1.080843 -0.352779
v -0.066873 1.436127 -0.054375
v -0.040013 1.441186 -0.759736
v 0.066873 1.745880 -0.404199
v 0.001092 1.631581 -0.759736
v -0.000000 1.745880 -0.054375
v -0.066873 1.745880 -0.404199
v 0.001092 1.441186 -0.759736
v -0.066873 1.436127 -0.404199
v -0.000000 1.436127 -0.054375
v 0.066873 1.436127 -0.404199
v -0.000000 1.745880 -0.404199
v -0.000000 1.126374 -0.404199
vt 0.500000 0.500674
vt 0.499236 0.001651
vt 0.999236 0.000885
vt 0.999996 0.498931
vt 0.500763 0.999696
vt 1.000756 0.996977
vt 0.000769 1.002416
vt 0.000003 0.502416
vt -0.000763 0.002417
vn 0.321700 -0.944900 0.061500
vn 0.000000 1.000000 0.000000
vn 1.000000 0.000000 0.000000
vn -0.000000 -0.000000 1.000000
vn -0.997200 -0.000000 -0.075300
vn -0.000000 0.000000 -1.000000
vn -0.996700 0.010300 -0.080700
vn -0.999800 0.015900 0.014000
vn -1.000000 -0.000000 -0.000000
vn 0.997600 0.000000 -0.069200
vn -0.000000 0.952000 -0.306100
vn 0.204200 -0.916600 -0.343700
vn -0.000000 -0.943900 -0.330300
vn 0.000000 -1.000000 -0.000000
usemtl Material.002
s off
f 60/14/17 46/15/17 37/16/17 48/17/17
f 59/14/18 54/15/18 41/16/18 53/17/18
f 58/14/19 51/15/19 40/16/19 47/17/19
f 57/14/20 53/15/20 41/16/20 49/17/20
f 56/14/21 54/15/21 42/16/21 50/17/21
f 55/14/22 44/15/22 38/16/22 50/17/22
f 52/18/22 55/14/22 50/17/22 42/19/22
f 39/20/22 45/21/22 55/14/22 52/18/22
f 45/21/22 35/22/22 44/15/22 55/14/22
f 48/18/23 56/14/23 50/17/23 38/19/23
f 37/20/24 49/21/24 56/14/24 48/18/24
f 49/21/25 41/22/25 54/15/25 56/14/25
f 46/18/20 57/14/20 49/17/20 37/19/20
f 36/20/20 47/21/20 57/14/20 46/18/20
f 47/21/20 40/22/20 53/15/20 57/14/20
f 43/18/19 58/14/19 47/17/19 36/19/19
f 35/20/26 45/21/26 58/14/26 43/18/26
f 45/21/26 39/22/26 51/15/26 58/14/26
f 51/18/18 59/14/18 53/17/18 40/19/18
f 39/20/27 52/21/27 59/14/27 51/18/27
f 52/21/27 42/22/27 54/15/27 59/14/27
f 44/18/28 60/14/28 48/17/28 38/19/28
f 35/20/29 43/21/29 60/14/29 44/18/29
f 43/21/30 36/22/30 46/15/30 60/14/30
